<svg width="1214" height="3212" viewBox="0 0 1214 3212" fill="none" xmlns="http://www.w3.org/2000/svg">
<path d="M605 2100C736.216 2100 809.784 2100 941 2100" stroke="url(#paint0_linear_1403_436)" stroke-width="4" stroke-linecap="round"/>
<path d="M231 2099.51C359.874 2099.51 432.128 2099.51 561.002 2099.51" stroke="url(#paint1_linear_1403_436)" stroke-width="4" stroke-linecap="round"/>
<path d="M232.996 2367.99C360.309 2367.99 431.689 2367.99 559.002 2367.99" stroke="url(#paint2_linear_1403_436)" stroke-width="4" stroke-linecap="round"/>
<path d="M233 2635C360.313 2635 431.693 2635 559.006 2635" stroke="url(#paint3_linear_1403_436)" stroke-width="4" stroke-linecap="round"/>
<path d="M231 2903C358.313 2903 429.693 2903 557.006 2903" stroke="url(#paint4_linear_1403_436)" stroke-width="4" stroke-linecap="round"/>
<path d="M605 2367.01C733.092 2367.01 804.908 2367.01 933 2367.01" stroke="url(#paint5_linear_1403_436)" stroke-width="4" stroke-linecap="round"/>
<path d="M605 2635C733.092 2635 804.908 2635 933 2635" stroke="url(#paint6_linear_1403_436)" stroke-width="4" stroke-linecap="round"/>
<path d="M607 2903C735.092 2903 806.908 2903 935 2903" stroke="url(#paint7_linear_1403_436)" stroke-width="4" stroke-linecap="round"/>
<circle cx="207.242" cy="2100.24" r="21.7422" stroke="#A046EE" stroke-width="5"/>
<circle cx="209.242" cy="2369.24" r="21.7422" stroke="#A046EE" stroke-width="5"/>
<circle cx="959.242" cy="2369.24" r="21.7422" stroke="#A046EE" stroke-width="5"/>
<circle cx="959.242" cy="2635.24" r="21.7422" stroke="#A046EE" stroke-width="5"/>
<circle cx="583.242" cy="2635.24" r="21.7422" stroke="#A046EE" stroke-width="5"/>
<circle cx="209.242" cy="2635.24" r="21.7422" stroke="#A046EE" stroke-width="5"/>
<circle cx="209.242" cy="2903.24" r="21.7422" stroke="#A046EE" stroke-width="5"/>
<circle cx="581.242" cy="2903.24" r="21.7422" stroke="#A046EE" stroke-width="5"/>
<circle cx="959.242" cy="2903.24" r="21.7422" stroke="#A046EE" stroke-width="5"/>
<path d="M229.052 1019.43C229.052 1031.44 219.313 1041.17 207.297 1041.17C195.282 1041.17 185.543 1031.44 185.543 1019.43C185.543 1007.42 195.282 997.687 207.297 997.687C219.313 997.687 229.052 1007.42 229.052 1019.43Z" stroke="#D54EDE" stroke-width="5"/>
<path fill-rule="evenodd" clip-rule="evenodd" d="M40.3413 76.311C41.4459 76.311 42.3413 77.2065 42.3413 78.311V205.574C42.3413 217.724 52.191 227.574 64.3413 227.574L1180.28 227.573C1194.64 227.573 1206.28 239.214 1206.28 253.573V463.341C1206.28 477.701 1194.64 489.341 1180.28 489.341H61.6758C49.5256 489.341 39.6758 499.191 39.6758 511.341V732.426C39.6758 744.576 49.5255 754.426 61.6758 754.426H932.848C932.801 755.04 932.777 755.66 932.777 756.286C932.777 757.007 932.809 757.721 932.871 758.426H61.6758C47.3164 758.426 35.6758 746.785 35.6758 732.426V511.341C35.6758 496.982 47.3164 485.341 61.6758 485.341H1180.28C1192.43 485.341 1202.28 475.491 1202.28 463.341V253.573C1202.28 241.423 1192.43 231.573 1180.28 231.573L64.3413 231.574C49.9819 231.574 38.3413 219.933 38.3413 205.574V78.311C38.3413 77.2065 39.2367 76.311 40.3413 76.311ZM981.386 756.286C981.386 755.66 981.362 755.04 981.316 754.426H1180.28C1194.64 754.426 1206.28 766.067 1206.28 780.426V995.224C1206.28 1009.58 1194.64 1021.22 1180.28 1021.22H981.31C981.361 1020.58 981.388 1019.93 981.388 1019.27C981.388 1018.58 981.359 1017.9 981.302 1017.22H1180.28C1192.43 1017.22 1202.28 1007.37 1202.28 995.224V780.426C1202.28 768.276 1192.43 758.426 1180.28 758.426H981.293C981.354 757.721 981.386 757.007 981.386 756.286ZM932.905 1020.4C932.917 1020.68 932.935 1020.95 932.956 1021.22H231.558C231.609 1020.58 231.636 1019.93 231.636 1019.27C231.636 1018.58 231.607 1017.9 231.55 1017.22H932.964C932.908 1017.9 932.879 1018.58 932.879 1019.27C932.879 1019.39 932.88 1019.52 932.882 1019.64C932.885 1019.9 932.893 1020.15 932.905 1020.4ZM183.212 1017.22C183.156 1017.9 183.127 1018.58 183.127 1019.27C183.127 1019.93 183.153 1020.58 183.205 1021.22H64.3413C52.1911 1021.22 42.3413 1031.07 42.3413 1043.22V1288.54C42.3413 1289.65 41.4459 1290.54 40.3413 1290.54C39.2367 1290.54 38.3413 1289.65 38.3413 1288.54V1043.22C38.3413 1028.86 49.9819 1017.22 64.3413 1017.22H183.212Z" fill="url(#paint8_linear_1403_436)"/>
<path d="M982 2634.84C1381.64 2634.02 791.718 2635.61 1149.41 2634.89C1162.65 2634.87 1174 2624.13 1174 2610.89V2391C1174 2377.74 1163.25 2367 1150 2367H983" stroke="url(#paint9_linear_1403_436)" stroke-width="4" stroke-linecap="round"/>
<path d="M983 3170.84C1382.64 3170.02 792.718 3171.61 1150.41 3170.89C1163.65 3170.87 1175 3160.13 1175 3146.89V2927C1175 2913.74 1164.25 2903 1151 2903H984" stroke="url(#paint10_linear_1403_436)" stroke-width="4" stroke-linecap="round"/>
<path d="M186.5 2099.64C-156.088 2099.64 424.729 2098.84 66.5827 2099.59C53.3471 2099.62 42 2110.36 42 2123.59V2343.49C42 2356.74 52.7452 2367.49 66 2367.49L186.5 2367.48" stroke="url(#paint11_linear_1403_436)" stroke-width="4" stroke-linecap="round"/>
<path d="M186.5 2635.37C-156.088 2635.37 424.729 2634.57 66.5827 2635.32C53.3471 2635.35 42 2646.09 42 2659.32V2879.21C42 2892.47 52.7452 2903.21 66 2903.21L186.5 2903.21" stroke="url(#paint12_linear_1403_436)" stroke-width="4" stroke-linecap="round"/>
<circle cx="583.242" cy="2099.24" r="21.7422" stroke="#A046EE" stroke-width="5"/>
<circle cx="583.242" cy="2369.24" r="21.7422" stroke="#A046EE" stroke-width="5"/>
<path d="M978.955 756.285C978.955 768.284 969.189 778.027 957.121 778.027C945.054 778.027 935.287 768.284 935.287 756.285C935.287 744.286 945.054 734.543 957.121 734.543C969.189 734.543 978.955 744.286 978.955 756.285Z" stroke="#6F3CFF" stroke-width="5"/>
<path d="M978.955 1018.9C978.955 1030.9 969.189 1040.64 957.121 1040.64C945.054 1040.64 935.287 1030.9 935.287 1018.9C935.287 1006.9 945.054 997.158 957.121 997.158C969.189 997.158 978.955 1006.9 978.955 1018.9Z" stroke="#6A42FD" stroke-width="5"/>
<path d="M978.921 3170.94C978.921 3191.34 962.375 3207.88 941.961 3207.88C921.546 3207.88 905 3191.34 905 3170.94C905 3150.54 921.546 3134 941.961 3134C962.375 3134 978.921 3150.54 978.921 3170.94Z" stroke="#FF54D0" stroke-width="8"/>
<ellipse cx="958.205" cy="3170.2" rx="5.83197" ry="5.82904" fill="#FF54CF"/>
<ellipse cx="941.963" cy="3170.2" rx="5.83197" ry="5.82904" fill="#FF54CF"/>
<ellipse cx="925.717" cy="3170.2" rx="5.83197" ry="5.82904" fill="#FF54CF"/>
<circle cx="40.9414" cy="40.9395" r="21.7422" fill="#FFC700" stroke="#FFC700" stroke-width="5"/>
<path d="M34.9029 47.8848L28.6697 41.6515C27.9811 40.963 26.8649 40.963 26.1763 41.6515V41.6515C25.4878 42.34 25.4878 43.4563 26.1763 44.1448L33.4887 51.4572C34.2698 52.2382 35.5361 52.2382 36.3172 51.4572L55.0275 32.7468C55.7161 32.0583 55.7161 30.942 55.0275 30.2535V30.2535C54.339 29.565 53.2227 29.565 52.5342 30.2535L34.9029 47.8848Z" fill="black"/>
<circle cx="40.9402" cy="40.9402" r="36.9402" stroke="#FFC700" stroke-width="8"/>
<path d="M598.155 759.917C600.364 759.917 602.155 758.126 602.155 755.917C602.155 753.708 600.364 751.917 598.155 751.917V759.917ZM44.6035 78.1494L44.6035 74.1494L36.6035 74.1494L36.6035 78.1494L44.6035 78.1494ZM64.6035 233.208H1180.23V225.208H64.6035V233.208ZM1200.23 253.208V462.976H1208.23V253.208H1200.23ZM44.6035 205.208L44.6035 78.1494L36.6035 78.1494L36.6035 205.208L44.6035 205.208ZM1180.23 482.976H160.63V490.976H1180.23V482.976ZM160.63 482.976H64.8464V490.976H160.63V482.976ZM36.8463 510.976L36.8463 731.917L44.8463 731.917L44.8463 510.976L36.8463 510.976ZM64.8463 759.917H598.155V751.917H64.8463V759.917ZM36.8463 731.917C36.8463 747.381 49.3824 759.917 64.8463 759.917V751.917C53.8006 751.917 44.8463 742.963 44.8463 731.917L36.8463 731.917ZM1200.23 462.976C1200.23 474.022 1191.27 482.976 1180.23 482.976V490.976C1195.69 490.976 1208.23 478.44 1208.23 462.976H1200.23ZM64.8464 482.976C49.3824 482.976 36.8463 495.512 36.8463 510.976L44.8463 510.976C44.8463 499.93 53.8007 490.976 64.8464 490.976V482.976ZM1180.23 233.208C1191.27 233.208 1200.23 242.162 1200.23 253.208H1208.23C1208.23 237.744 1195.69 225.208 1180.23 225.208V233.208ZM64.6035 225.208C53.5578 225.208 44.6035 216.254 44.6035 205.208L36.6035 205.208C36.6035 220.672 49.1395 233.208 64.6035 233.208V225.208Z" fill="#FFC700"/>
<path d="M598 1840.5C600.209 1840.5 602 1838.71 602 1836.5C602 1834.29 600.209 1832.5 598 1832.5V1840.5ZM44.9999 1052.48L44.977 1048.48L36.9771 1048.52L37.0001 1052.52L44.9999 1052.48ZM66.3627 1318H1182.5V1310H66.3627V1318ZM1202.5 1338V1545.5H1210.5V1338H1202.5ZM46.3631 1290.11L44.9999 1052.48L37.0001 1052.52L38.3632 1290.16L46.3631 1290.11ZM1182.5 1565.5H162.5V1573.5H1182.5V1565.5ZM162.5 1565.5H65.4013V1573.5H162.5V1565.5ZM37.4019 1593.68L38.8432 1812.68L46.843 1812.63L45.4017 1593.63L37.4019 1593.68ZM66.8426 1840.5H598V1832.5H66.8426V1840.5ZM38.8432 1812.68C38.9445 1828.08 51.4505 1840.5 66.8426 1840.5V1832.5C55.8482 1832.5 46.9154 1823.63 46.843 1812.63L38.8432 1812.68ZM1202.5 1545.5C1202.5 1556.55 1193.55 1565.5 1182.5 1565.5V1573.5C1197.96 1573.5 1210.5 1560.96 1210.5 1545.5H1202.5ZM65.4013 1565.5C49.8653 1565.5 37.2997 1578.15 37.4019 1593.68L45.4017 1593.63C45.3287 1582.53 54.3042 1573.5 65.4013 1573.5V1565.5ZM1182.5 1318C1193.55 1318 1202.5 1326.95 1202.5 1338H1210.5C1210.5 1322.54 1197.96 1310 1182.5 1310V1318ZM66.3627 1310C55.3618 1310 46.4262 1301.12 46.3631 1290.11L38.3632 1290.16C38.4515 1305.56 50.9614 1318 66.3627 1318V1310Z" fill="#FFC700"/>
<path d="M85.7578 1019H65C51.7452 1019 41 1029.75 41 1043V1062.17V1043C41 1029.75 51.7452 1019 65 1019H85.7578Z" stroke="#FFC700" stroke-width="8" stroke-linecap="round"/>
<path d="M958.285 2095C956.076 2095 954.285 2096.79 954.285 2099C954.285 2101.21 956.076 2103 958.285 2103V2095ZM44.9994 1691.93L44.9299 1687.93L36.9311 1688.07L37.0006 1692.07L44.9994 1691.93ZM1206.36 2075.37L1202.36 2075.3L1206.36 2075.37ZM1209.63 1860.42L1213.63 1860.48L1209.63 1860.42ZM67.0889 1840.05H1185.63V1832.05H67.0889V1840.05ZM1205.63 1860.36L1202.36 2075.3L1210.36 2075.43L1213.63 1860.48L1205.63 1860.36ZM47.0919 1812.4L44.9994 1691.93L37.0006 1692.07L39.0931 1812.54L47.0919 1812.4ZM1182.36 2095H958.285V2103H1182.36V2095ZM1202.36 2075.3C1202.19 2086.23 1193.29 2095 1182.36 2095V2103C1197.66 2103 1210.12 2090.72 1210.36 2075.43L1202.36 2075.3ZM1185.63 1840.05C1196.8 1840.05 1205.8 1849.19 1205.63 1860.36L1213.63 1860.48C1213.87 1844.85 1201.26 1832.05 1185.63 1832.05V1840.05ZM67.0889 1832.05C56.1786 1832.05 47.2814 1823.31 47.0919 1812.4L39.0931 1812.54C39.3584 1827.81 51.8145 1840.05 67.0889 1840.05V1832.05Z" fill="#FFC700"/>
<circle cx="960.07" cy="229.168" r="21.7422" fill="#FFC700" stroke="#FFC700" stroke-width="5"/>
<path d="M954.032 236.113L947.799 229.88C947.11 229.192 945.994 229.192 945.305 229.88V229.88C944.617 230.569 944.617 231.685 945.305 232.373L952.618 239.686C953.399 240.467 954.665 240.467 955.446 239.686L974.156 220.975C974.845 220.287 974.845 219.171 974.156 218.482V218.482C973.468 217.793 972.352 217.793 971.663 218.482L954.032 236.113Z" fill="black"/>
<circle cx="208.221" cy="229.167" r="21.7422" fill="#FFC700" stroke="#FFC700" stroke-width="5"/>
<path d="M202.182 236.113L195.949 229.88C195.26 229.191 194.144 229.191 193.456 229.88V229.88C192.767 230.568 192.767 231.684 193.456 232.373L200.768 239.685C201.549 240.466 202.815 240.466 203.596 239.685L222.307 220.975C222.995 220.286 222.995 219.17 222.307 218.482V218.482C221.618 217.793 220.502 217.793 219.814 218.482L202.182 236.113Z" fill="black"/>
<circle cx="581.242" cy="229.242" r="21.7422" fill="#FFC700" stroke="#FFC700" stroke-width="5"/>
<path d="M578.032 236.113L571.799 229.88C571.11 229.192 569.994 229.192 569.305 229.88V229.88C568.617 230.569 568.617 231.685 569.305 232.373L576.618 239.686C577.399 240.467 578.665 240.467 579.446 239.686L598.156 220.975C598.845 220.287 598.845 219.171 598.156 218.482V218.482C597.468 217.793 596.352 217.793 595.663 218.482L578.032 236.113Z" fill="black"/>
<circle cx="581.242" cy="488.242" r="21.7422" fill="#FFC700" stroke="#FFC700" stroke-width="5"/>
<path d="M575.204 495.188L568.97 488.954C568.282 488.266 567.166 488.266 566.477 488.954V488.954C565.789 489.643 565.789 490.759 566.477 491.448L573.79 498.76C574.571 499.541 575.837 499.541 576.618 498.76L595.328 480.05C596.017 479.361 596.017 478.245 595.328 477.556V477.556C594.64 476.868 593.524 476.868 592.835 477.556L575.204 495.188Z" fill="black"/>
<circle cx="208.221" cy="487.683" r="21.7422" fill="#FFC700" stroke="#FFC700" stroke-width="5"/>
<path d="M202.182 494.628L195.949 488.395C195.26 487.707 194.144 487.707 193.456 488.395V488.395C192.767 489.084 192.767 490.2 193.456 490.888L200.768 498.201C201.549 498.982 202.815 498.982 203.596 498.201L222.307 479.49C222.995 478.802 222.995 477.686 222.307 476.997V476.997C221.618 476.309 220.502 476.309 219.814 476.997L202.182 494.628Z" fill="black"/>
<circle cx="960.07" cy="487.683" r="21.7422" fill="#FFC700" stroke="#FFC700" stroke-width="5"/>
<path d="M954.032 494.628L947.799 488.395C947.11 487.707 945.994 487.707 945.305 488.395V488.395C944.617 489.084 944.617 490.2 945.305 490.888L952.618 498.201C953.399 498.982 954.665 498.982 955.446 498.201L974.156 479.49C974.845 478.802 974.845 477.686 974.156 476.997V476.997C973.468 476.309 972.352 476.309 971.663 476.997L954.032 494.628Z" fill="black"/>
<circle cx="208.721" cy="755.917" r="21.7422" fill="#FFC700" stroke="#FFC700" stroke-width="5"/>
<path d="M202.682 762.862L196.449 756.629C195.76 755.941 194.644 755.941 193.956 756.629V756.629C193.267 757.318 193.267 758.434 193.956 759.122L201.268 766.435C202.049 767.216 203.315 767.216 204.096 766.435L222.807 747.724C223.495 747.036 223.495 745.92 222.807 745.231V745.231C222.118 744.543 221.002 744.543 220.314 745.231L202.682 762.862Z" fill="black"/>
<circle cx="581.242" cy="757.242" r="21.7422" fill="#FFC700" stroke="#FFC700" stroke-width="5"/>
<g filter="url(#filter0_d_1403_436)">
<path d="M605 756H1182C1195.25 756 1206 766.745 1206 780V995C1206 1008.25 1195.25 1019 1182 1019H1026.49H86" stroke="#FFC700" stroke-width="8" stroke-linecap="round"/>
</g>
<circle cx="957.242" cy="756.242" r="21.7422" fill="#FFC700" stroke="#FFC700" stroke-width="5"/>
<path d="M574.973 762.878L568.74 756.645C568.051 755.956 566.935 755.956 566.247 756.645V756.645C565.558 757.333 565.558 758.449 566.247 759.138L573.559 766.45C574.34 767.231 575.606 767.231 576.387 766.45L595.098 747.74C595.786 747.051 595.786 745.935 595.098 745.247V745.247C594.409 744.558 593.293 744.558 592.605 745.247L574.973 762.878Z" fill="black"/>
<path d="M950.973 762.878L944.74 756.645C944.051 755.956 942.935 755.956 942.247 756.645V756.645C941.558 757.333 941.558 758.449 942.247 759.138L949.559 766.45C950.34 767.231 951.606 767.231 952.387 766.45L971.098 747.74C971.786 747.051 971.786 745.935 971.098 745.247V745.247C970.409 744.558 969.293 744.558 968.605 745.247L950.973 762.878Z" fill="black"/>
<circle cx="208.721" cy="755.917" r="21.7422" fill="#FFC700" stroke="#FFC700" stroke-width="5"/>
<path d="M202.682 762.862L196.449 756.629C195.76 755.941 194.644 755.941 193.956 756.629V756.629C193.267 757.318 193.267 758.434 193.956 759.122L201.268 766.435C202.049 767.216 203.315 767.216 204.096 766.435L222.807 747.724C223.495 747.036 223.495 745.92 222.807 745.231V745.231C222.118 744.543 221.002 744.543 220.314 745.231L202.682 762.862Z" fill="black"/>
<circle cx="207.242" cy="1019.24" r="21.7422" fill="#FFC700" stroke="#FFC700" stroke-width="5"/>
<path d="M201.204 1026.19L194.97 1019.95C194.282 1019.27 193.166 1019.27 192.477 1019.95V1019.95C191.789 1020.64 191.789 1021.76 192.477 1022.45L199.79 1029.76C200.571 1030.54 201.837 1030.54 202.618 1029.76L221.328 1011.05C222.017 1010.36 222.017 1009.24 221.328 1008.56V1008.56C220.64 1007.87 219.524 1007.87 218.835 1008.56L201.204 1026.19Z" fill="black"/>
<circle cx="581.242" cy="1019.24" r="21.7422" fill="#FFC700" stroke="#FFC700" stroke-width="5"/>
<path d="M574.973 1025.88L568.74 1019.64C568.051 1018.96 566.935 1018.96 566.247 1019.64V1019.64C565.558 1020.33 565.558 1021.45 566.247 1022.14L573.559 1029.45C574.34 1030.23 575.606 1030.23 576.387 1029.45L595.098 1010.74C595.786 1010.05 595.786 1008.94 595.098 1008.25V1008.25C594.409 1007.56 593.293 1007.56 592.605 1008.25L574.973 1025.88Z" fill="black"/>
<circle cx="957.242" cy="1019.24" r="21.7422" fill="#FFC700" stroke="#FFC700" stroke-width="5"/>
<path d="M951.204 1027.19L944.97 1020.95C944.282 1020.27 943.166 1020.27 942.477 1020.95V1020.95C941.789 1021.64 941.789 1022.76 942.477 1023.45L949.79 1030.76C950.571 1031.54 951.837 1031.54 952.618 1030.76L971.328 1012.05C972.017 1011.36 972.017 1010.24 971.328 1009.56V1009.56C970.64 1008.87 969.524 1008.87 968.835 1009.56L951.204 1027.19Z" fill="black"/>
<circle cx="957.242" cy="1315.24" r="21.7422" fill="#FFC700" stroke="#FFC700" stroke-width="5"/>
<path d="M951.204 1322.19L944.97 1315.95C944.282 1315.27 943.166 1315.27 942.477 1315.95V1315.95C941.789 1316.64 941.789 1317.76 942.477 1318.45L949.79 1325.76C950.571 1326.54 951.837 1326.54 952.618 1325.76L971.328 1307.05C972.017 1306.36 972.017 1305.24 971.328 1304.56V1304.56C970.64 1303.87 969.524 1303.87 968.835 1304.56L951.204 1322.19Z" fill="black"/>
<circle cx="581.242" cy="1315.24" r="21.7422" fill="#FFC700" stroke="#FFC700" stroke-width="5"/>
<path d="M574.973 1321.88L568.74 1315.64C568.051 1314.96 566.935 1314.96 566.247 1315.64V1315.64C565.558 1316.33 565.558 1317.45 566.247 1318.14L573.559 1325.45C574.34 1326.23 575.606 1326.23 576.387 1325.45L595.098 1306.74C595.786 1306.05 595.786 1304.94 595.098 1304.25V1304.25C594.409 1303.56 593.293 1303.56 592.605 1304.25L574.973 1321.88Z" fill="black"/>
<circle cx="209.242" cy="1315.24" r="21.7422" fill="#FFC700" stroke="#FFC700" stroke-width="5"/>
<path d="M203.204 1322.19L196.97 1315.95C196.282 1315.27 195.166 1315.27 194.477 1315.95V1315.95C193.789 1316.64 193.789 1317.76 194.477 1318.45L201.79 1325.76C202.571 1326.54 203.837 1326.54 204.618 1325.76L223.328 1307.05C224.017 1306.36 224.017 1305.24 223.328 1304.56V1304.56C222.64 1303.87 221.524 1303.87 220.835 1304.56L203.204 1322.19Z" fill="black"/>
<circle cx="207.242" cy="1568.24" r="21.7422" fill="#FFC700" stroke="#FFC700" stroke-width="5"/>
<path d="M201.204 1575.19L194.97 1568.95C194.282 1568.27 193.166 1568.27 192.477 1568.95V1568.95C191.789 1569.64 191.789 1570.76 192.477 1571.45L199.79 1578.76C200.571 1579.54 201.837 1579.54 202.618 1578.76L221.328 1560.05C222.017 1559.36 222.017 1558.24 221.328 1557.56V1557.56C220.64 1556.87 219.524 1556.87 218.835 1557.56L201.204 1575.19Z" fill="black"/>
<circle cx="207.242" cy="1568.24" r="21.7422" fill="#FFC700" stroke="#FFC700" stroke-width="5"/>
<path d="M201.204 1575.19L194.97 1568.95C194.282 1568.27 193.166 1568.27 192.477 1568.95V1568.95C191.789 1569.64 191.789 1570.76 192.477 1571.45L199.79 1578.76C200.571 1579.54 201.837 1579.54 202.618 1578.76L221.328 1560.05C222.017 1559.36 222.017 1558.24 221.328 1557.56V1557.56C220.64 1556.87 219.524 1556.87 218.835 1557.56L201.204 1575.19Z" fill="black"/>
<circle cx="581.242" cy="1568.24" r="21.7422" fill="#FFC700" stroke="#FFC700" stroke-width="5"/>
<path d="M574.973 1574.88L568.74 1568.64C568.051 1567.96 566.935 1567.96 566.247 1568.64V1568.64C565.558 1569.33 565.558 1570.45 566.247 1571.14L573.559 1578.45C574.34 1579.23 575.606 1579.23 576.387 1578.45L595.098 1559.74C595.786 1559.05 595.786 1557.94 595.098 1557.25V1557.25C594.409 1556.56 593.293 1556.56 592.605 1557.25L574.973 1574.88Z" fill="black"/>
<circle cx="957.242" cy="1568.24" r="21.7422" fill="#FFC700" stroke="#FFC700" stroke-width="5"/>
<path d="M951.204 1575.19L944.97 1568.95C944.282 1568.27 943.166 1568.27 942.477 1568.95V1568.95C941.789 1569.64 941.789 1570.76 942.477 1571.45L949.79 1578.76C950.571 1579.54 951.837 1579.54 952.618 1578.76L971.328 1560.05C972.017 1559.36 972.017 1558.24 971.328 1557.56V1557.56C970.64 1556.87 969.524 1556.87 968.835 1557.56L951.204 1575.19Z" fill="black"/>
<circle cx="957.242" cy="1843.24" r="21.7422" fill="#FFC700" stroke="#FFC700" stroke-width="5"/>
<path d="M951.204 1850.19L944.97 1843.95C944.282 1843.27 943.166 1843.27 942.477 1843.95V1843.95C941.789 1844.64 941.789 1845.76 942.477 1846.45L949.79 1853.76C950.571 1854.54 951.837 1854.54 952.618 1853.76L971.328 1835.05C972.017 1834.36 972.017 1833.24 971.328 1832.56V1832.56C970.64 1831.87 969.524 1831.87 968.835 1832.56L951.204 1850.19Z" fill="black"/>
<path d="M602.984 1843.24C602.984 1855.25 593.25 1864.98 581.242 1864.98C569.234 1864.98 559.5 1855.25 559.5 1843.24C559.5 1831.23 569.234 1821.5 581.242 1821.5C593.25 1821.5 602.984 1831.23 602.984 1843.24Z" fill="#FFC700" stroke="#FFC700" stroke-width="5"/>
<path d="M574.973 1849.88L568.74 1843.64C568.051 1842.96 566.935 1842.96 566.247 1843.64V1843.64C565.558 1844.33 565.558 1845.45 566.247 1846.14L573.559 1853.45C574.34 1854.23 575.606 1854.23 576.387 1853.45L595.098 1834.74C595.786 1834.05 595.786 1832.94 595.098 1832.25V1832.25C594.409 1831.56 593.293 1831.56 592.605 1832.25L574.973 1849.88Z" fill="black"/>
<circle cx="207.242" cy="1843.24" r="21.7422" fill="#FFC700" stroke="#FFC700" stroke-width="5"/>
<path d="M201.204 1850.19L194.97 1843.95C194.282 1843.27 193.166 1843.27 192.477 1843.95V1843.95C191.789 1844.64 191.789 1845.76 192.477 1846.45L199.79 1853.76C200.571 1854.54 201.837 1854.54 202.618 1853.76L221.328 1835.05C222.017 1834.36 222.017 1833.24 221.328 1832.56V1832.56C220.64 1831.87 219.524 1831.87 218.835 1832.56L201.204 1850.19Z" fill="black"/>
<circle cx="957.242" cy="2100.24" r="21.7422" fill="#FFC700" stroke="#FFC700" stroke-width="5"/>
<path d="M950.973 2105.88L944.74 2099.64C944.051 2098.96 942.935 2098.96 942.247 2099.64V2099.64C941.558 2100.33 941.558 2101.45 942.247 2102.14L949.559 2109.45C950.34 2110.23 951.606 2110.23 952.387 2109.45L971.098 2090.74C971.786 2090.05 971.786 2088.94 971.098 2088.25V2088.25C970.409 2087.56 969.293 2087.56 968.605 2088.25L950.973 2105.88Z" fill="black"/>
<defs>
<filter id="filter0_d_1403_436" x="78" y="752" width="1136" height="279" filterUnits="userSpaceOnUse" color-interpolation-filters="sRGB">
<feFlood flood-opacity="0" result="BackgroundImageFix"/>
<feColorMatrix in="SourceAlpha" type="matrix" values="0 0 0 0 0 0 0 0 0 0 0 0 0 0 0 0 0 0 127 0" result="hardAlpha"/>
<feOffset dy="4"/>
<feGaussianBlur stdDeviation="2"/>
<feComposite in2="hardAlpha" operator="out"/>
<feColorMatrix type="matrix" values="0 0 0 0 0 0 0 0 0 0 0 0 0 0 0 0 0 0 0.25 0"/>
<feBlend mode="normal" in2="BackgroundImageFix" result="effect1_dropShadow_1403_436"/>
<feBlend mode="normal" in="SourceGraphic" in2="effect1_dropShadow_1403_436" result="shape"/>
</filter>
<linearGradient id="paint0_linear_1403_436" x1="871.204" y1="2122.88" x2="727.521" y2="2168.71" gradientUnits="userSpaceOnUse">
<stop stop-color="#6F3CFF"/>
<stop offset="1" stop-color="#FF54CF"/>
</linearGradient>
<linearGradient id="paint1_linear_1403_436" x1="492.452" y1="2122.38" x2="350.871" y2="2166.74" gradientUnits="userSpaceOnUse">
<stop stop-color="#6F3CFF"/>
<stop offset="1" stop-color="#FF54CF"/>
</linearGradient>
<linearGradient id="paint2_linear_1403_436" x1="491.282" y1="2390.87" x2="351.114" y2="2434.26" gradientUnits="userSpaceOnUse">
<stop stop-color="#6F3CFF"/>
<stop offset="1" stop-color="#FF54CF"/>
</linearGradient>
<linearGradient id="paint3_linear_1403_436" x1="491.286" y1="2657.88" x2="351.118" y2="2701.26" gradientUnits="userSpaceOnUse">
<stop stop-color="#6F3CFF"/>
<stop offset="1" stop-color="#FF54CF"/>
</linearGradient>
<linearGradient id="paint4_linear_1403_436" x1="489.286" y1="2925.88" x2="349.118" y2="2969.26" gradientUnits="userSpaceOnUse">
<stop stop-color="#6F3CFF"/>
<stop offset="1" stop-color="#FF54CF"/>
</linearGradient>
<linearGradient id="paint5_linear_1403_436" x1="864.866" y1="2389.88" x2="723.992" y2="2433.75" gradientUnits="userSpaceOnUse">
<stop stop-color="#6F3CFF"/>
<stop offset="1" stop-color="#FF54CF"/>
</linearGradient>
<linearGradient id="paint6_linear_1403_436" x1="864.866" y1="2657.88" x2="723.992" y2="2701.75" gradientUnits="userSpaceOnUse">
<stop stop-color="#6F3CFF"/>
<stop offset="1" stop-color="#FF54CF"/>
</linearGradient>
<linearGradient id="paint7_linear_1403_436" x1="866.866" y1="2925.88" x2="725.992" y2="2969.75" gradientUnits="userSpaceOnUse">
<stop stop-color="#6F3CFF"/>
<stop offset="1" stop-color="#FF54CF"/>
</linearGradient>
<linearGradient id="paint8_linear_1403_436" x1="638.524" y1="832.095" x2="221.873" y2="1321.98" gradientUnits="userSpaceOnUse">
<stop stop-color="#6F3CFF"/>
<stop offset="1" stop-color="#FF54CF"/>
</linearGradient>
<linearGradient id="paint9_linear_1403_436" x1="710.815" y1="2459.03" x2="972.675" y2="1939.93" gradientUnits="userSpaceOnUse">
<stop stop-color="#6F3CFF"/>
<stop offset="1" stop-color="#FF54CF"/>
</linearGradient>
<linearGradient id="paint10_linear_1403_436" x1="711.815" y1="2995.03" x2="973.675" y2="2475.93" gradientUnits="userSpaceOnUse">
<stop stop-color="#6F3CFF"/>
<stop offset="1" stop-color="#FF54CF"/>
</linearGradient>
<linearGradient id="paint11_linear_1403_436" x1="505.185" y1="2275.46" x2="243.325" y2="2794.55" gradientUnits="userSpaceOnUse">
<stop stop-color="#6F3CFF"/>
<stop offset="1" stop-color="#FF54CF"/>
</linearGradient>
<linearGradient id="paint12_linear_1403_436" x1="505.185" y1="2811.19" x2="243.325" y2="3330.28" gradientUnits="userSpaceOnUse">
<stop stop-color="#6F3CFF"/>
<stop offset="1" stop-color="#FF54CF"/>
</linearGradient>
</defs>
</svg>
