<svg width="7859" height="49" viewBox="0 0 7859 49" fill="none" xmlns="http://www.w3.org/2000/svg">
<path fill-rule="evenodd" clip-rule="evenodd" d="M7598.8 23.6206C7598.83 23.2481 7598.84 22.8715 7598.84 22.4914C7598.84 22.0824 7598.83 21.6774 7598.79 21.2772L7812.84 21.1177C7813.49 21.1172 7814.02 21.6414 7814.02 22.2885C7814.02 22.9356 7813.49 23.4606 7812.85 23.4611L7598.8 23.6206ZM7570.38 23.6418L7356.78 23.801C7356.82 23.3697 7356.84 22.9329 7356.84 22.4914C7356.84 22.1437 7356.83 21.799 7356.81 21.4575L7570.38 21.2984C7570.35 21.6917 7570.33 22.0896 7570.33 22.4914C7570.33 22.8787 7570.35 23.2624 7570.38 23.6418ZM7114.77 23.9813L7328.39 23.8221C7328.35 23.384 7328.33 22.9402 7328.33 22.4914C7328.33 22.1509 7328.34 21.8132 7328.37 21.4787L7114.82 21.6379C7114.84 21.9202 7114.85 22.2047 7114.85 22.4913C7114.85 22.9945 7114.82 23.4916 7114.77 23.9813ZM7086.41 24.0025L6859.17 24.1718C6858.53 24.1723 6858 23.6481 6858 23.001C6858 22.3538 6858.52 21.8289 6859.17 21.8284L7086.36 21.6591C7086.34 21.9344 7086.33 22.2119 7086.33 22.4913C7086.33 23.0017 7086.36 23.5059 7086.41 24.0025Z" fill="url(#paint0_linear_1602_223)"/>
<path d="M7835.53 44.8673C7847.5 44.8673 7857.21 35.1592 7857.21 23.1837C7857.21 11.2081 7847.5 1.5 7835.53 1.5C7823.55 1.5 7813.84 11.2081 7813.84 23.1837C7813.84 35.1592 7823.55 44.8673 7835.53 44.8673Z" stroke="#A846EC" stroke-width="3"/>
<path fill-rule="evenodd" clip-rule="evenodd" d="M7835.53 38.1841C7843.81 38.1841 7850.53 31.4684 7850.53 23.1841C7850.53 14.8998 7843.81 8.18408 7835.53 8.18408C7827.24 8.18408 7820.53 14.8998 7820.53 23.1841C7820.53 31.4684 7827.24 38.1841 7835.53 38.1841ZM7827.33 23.184C7827.33 23.7151 7827.51 24.1603 7827.87 24.5196C7828.22 24.8789 7828.67 25.0585 7829.2 25.0585C7829.73 25.0585 7830.18 24.8789 7830.54 24.5196C7830.9 24.1603 7831.08 23.7151 7831.08 23.184C7831.08 22.6529 7830.9 22.2078 7830.54 21.8485C7830.18 21.4892 7829.73 21.3096 7829.2 21.3096C7828.67 21.3096 7828.22 21.4892 7827.87 21.8485C7827.51 22.2078 7827.33 22.6529 7827.33 23.184ZM7833.65 23.184C7833.65 23.7151 7833.83 24.1603 7834.19 24.5196C7834.55 24.8789 7835 25.0585 7835.53 25.0585C7836.06 25.0585 7836.5 24.8789 7836.86 24.5196C7837.22 24.1603 7837.4 23.7151 7837.4 23.184C7837.4 22.6529 7837.22 22.2078 7836.86 21.8485C7836.5 21.4892 7836.06 21.3096 7835.53 21.3096C7835 21.3096 7834.55 21.4892 7834.19 21.8485C7833.83 22.2078 7833.65 22.6529 7833.65 23.184ZM7839.98 23.184C7839.98 23.7151 7840.16 24.1603 7840.52 24.5196C7840.88 24.8789 7841.32 25.0585 7841.85 25.0585C7842.38 25.0585 7842.83 24.8789 7843.19 24.5196C7843.55 24.1603 7843.73 23.7151 7843.73 23.184C7843.73 22.6529 7843.55 22.2078 7843.19 21.8485C7842.83 21.4892 7842.38 21.3096 7841.85 21.3096C7841.32 21.3096 7840.88 21.4892 7840.52 21.8485C7840.16 22.2078 7839.98 22.6529 7839.98 23.184Z" fill="#A846EC"/>
<path d="M7113.39 22.492C7113.39 29.5217 7107.67 35.2299 7100.6 35.2299C7093.53 35.2299 7087.81 29.5217 7087.81 22.492C7087.81 15.4624 7093.53 9.7542 7100.6 9.7542C7107.67 9.7542 7113.39 15.4624 7113.39 22.492Z" stroke="#743DFE" stroke-width="2.92929"/>
<path d="M7355.39 22.492C7355.39 29.5217 7349.67 35.2299 7342.6 35.2299C7335.53 35.2299 7329.81 29.5217 7329.81 22.492C7329.81 15.4624 7335.53 9.7542 7342.6 9.7542C7349.67 9.7542 7355.39 15.4624 7355.39 22.492Z" stroke="#8440F9" stroke-width="2.92929"/>
<path d="M7597.39 22.492C7597.39 29.5217 7591.67 35.2299 7584.6 35.2299C7577.53 35.2299 7571.81 29.5217 7571.81 22.492C7571.81 15.4624 7577.53 9.7542 7584.6 9.7542C7591.67 9.7542 7597.39 15.4624 7597.39 22.492Z" stroke="#9643F3" stroke-width="2.92929"/>
<path fill-rule="evenodd" clip-rule="evenodd" d="M6832.35 23.9207C6832.33 23.6828 6832.33 23.4434 6832.33 23.2026C6832.33 22.6529 6832.36 22.1106 6832.42 21.5771L6618.78 21.8659C6618.82 22.306 6618.84 22.7518 6618.84 23.2026C6618.84 23.5411 6618.83 23.8768 6618.81 24.2093L6832.35 23.9207ZM6376.78 24.5365L6590.37 24.2478C6590.34 23.9027 6590.33 23.5541 6590.33 23.2026C6590.33 22.7649 6590.35 22.3319 6590.39 21.9043L6376.81 22.193C6376.83 22.5264 6376.84 22.863 6376.84 23.2024C6376.84 23.6523 6376.82 24.0973 6376.78 24.5365ZM6348.4 24.5748L6121.17 24.882C6120.53 24.8828 6120 24.3589 6120 23.7118C6120 23.0647 6120.52 22.5394 6121.17 22.5385L6348.36 22.2314C6348.34 22.5523 6348.33 22.8761 6348.33 23.2024C6348.33 23.6654 6348.35 24.1232 6348.4 24.5748Z" fill="url(#paint1_linear_1602_223)"/>
<path d="M6375.39 23.2025C6375.39 30.2322 6369.67 35.9403 6362.6 35.9403C6355.53 35.9403 6349.81 30.2322 6349.81 23.2025C6349.81 16.1728 6355.53 10.4646 6362.6 10.4646C6369.67 10.4646 6375.39 16.1728 6375.39 23.2025Z" stroke="#743DFE" stroke-width="2.92929"/>
<path d="M6617.39 23.2025C6617.39 30.2322 6611.67 35.9403 6604.6 35.9403C6597.53 35.9403 6591.81 30.2322 6591.81 23.2025C6591.81 16.1728 6597.53 10.4646 6604.6 10.4646C6611.67 10.4646 6617.39 16.1728 6617.39 23.2025Z" stroke="#8440F9" stroke-width="2.92929"/>
<path d="M6859.39 23.2025C6859.39 30.2322 6853.67 35.9403 6846.6 35.9403C6839.53 35.9403 6833.81 30.2322 6833.81 23.2025C6833.81 16.1728 6839.53 10.4646 6846.6 10.4646C6853.67 10.4646 6859.39 16.1728 6859.39 23.2025Z" stroke="#9643F3" stroke-width="2.92929"/>
<path fill-rule="evenodd" clip-rule="evenodd" d="M6093.35 24.9207C6093.33 24.6828 6093.33 24.4434 6093.33 24.2026C6093.33 23.6529 6093.36 23.1106 6093.42 22.5771L5879.78 22.8659C5879.82 23.306 5879.84 23.7518 5879.84 24.2026C5879.84 24.5411 5879.83 24.8768 5879.81 25.2093L6093.35 24.9207ZM5637.78 25.5365L5851.37 25.2478C5851.34 24.9027 5851.33 24.5541 5851.33 24.2026C5851.33 23.7649 5851.35 23.3319 5851.39 22.9043L5637.81 23.193C5637.83 23.5264 5637.84 23.863 5637.84 24.2024C5637.84 24.6523 5637.82 25.0973 5637.78 25.5365ZM5609.4 25.5748L5382.17 25.882C5381.53 25.8828 5381 25.3589 5381 24.7118C5381 24.0647 5381.52 23.5394 5382.17 23.5385L5609.36 23.2314C5609.34 23.5523 5609.33 23.8761 5609.33 24.2024C5609.33 24.6654 5609.35 25.1232 5609.4 25.5748Z" fill="url(#paint2_linear_1602_223)"/>
<path d="M5636.39 24.2025C5636.39 31.2322 5630.67 36.9403 5623.6 36.9403C5616.53 36.9403 5610.81 31.2322 5610.81 24.2025C5610.81 17.1728 5616.53 11.4646 5623.6 11.4646C5630.67 11.4646 5636.39 17.1728 5636.39 24.2025Z" stroke="#743DFE" stroke-width="2.92929"/>
<path d="M5878.39 24.2025C5878.39 31.2322 5872.67 36.9403 5865.6 36.9403C5858.53 36.9403 5852.81 31.2322 5852.81 24.2025C5852.81 17.1728 5858.53 11.4646 5865.6 11.4646C5872.67 11.4646 5878.39 17.1728 5878.39 24.2025Z" stroke="#8440F9" stroke-width="2.92929"/>
<path d="M6120.39 24.2025C6120.39 31.2322 6114.67 36.9403 6107.6 36.9403C6100.53 36.9403 6094.81 31.2322 6094.81 24.2025C6094.81 17.1728 6100.53 11.4646 6107.6 11.4646C6114.67 11.4646 6120.39 17.1728 6120.39 24.2025Z" stroke="#9643F3" stroke-width="2.92929"/>
<path d="M2439.33 25L4158 23.9984" stroke="#FFC700" stroke-width="4"/>
<path d="M2469 24C2469 32.2843 2462.28 39 2454 39C2445.72 39 2439 32.2843 2439 24C2439 15.7157 2445.72 9 2454 9C2462.28 9 2469 15.7157 2469 24Z" fill="#FFC700"/>
<path d="M2712.36 24C2712.36 32.2843 2705.64 39 2697.36 39C2689.08 39 2682.36 32.2843 2682.36 24C2682.36 15.7157 2689.08 9 2697.36 9C2705.64 9 2712.36 15.7157 2712.36 24Z" fill="#FFC700"/>
<path d="M2955.72 24C2955.72 32.2843 2949 39 2940.72 39C2932.43 39 2925.72 32.2843 2925.72 24C2925.72 15.7157 2932.43 9 2940.72 9C2949 9 2955.72 15.7157 2955.72 24Z" fill="#FFC700"/>
<path d="M3199.08 24C3199.08 32.2843 3192.36 39 3184.08 39C3175.79 39 3169.08 32.2843 3169.08 24C3169.08 15.7157 3175.79 9 3184.08 9C3192.36 9 3199.08 15.7157 3199.08 24Z" fill="#FFC700"/>
<path d="M3442.44 24C3442.44 32.2843 3435.72 39 3427.44 39C3419.15 39 3412.44 32.2843 3412.44 24C3412.44 15.7157 3419.15 9 3427.44 9C3435.72 9 3442.44 15.7157 3442.44 24Z" fill="#FFC700"/>
<path d="M3685.8 24C3685.8 32.2843 3679.08 39 3670.8 39C3662.51 39 3655.8 32.2843 3655.8 24C3655.8 15.7157 3662.51 9 3670.8 9C3679.08 9 3685.8 15.7157 3685.8 24Z" fill="#FFC700"/>
<path d="M3929.16 24C3929.16 32.2843 3922.44 39 3914.16 39C3905.87 39 3899.16 32.2843 3899.16 24C3899.16 15.7157 3905.87 9 3914.16 9C3922.44 9 3929.16 15.7157 3929.16 24Z" fill="#FFC700"/>
<path d="M4172.52 24C4172.52 32.2843 4165.8 39 4157.52 39C4149.23 39 4142.52 32.2843 4142.52 24C4142.52 15.7157 4149.23 9 4157.52 9C4165.8 9 4172.52 15.7157 4172.52 24Z" fill="#FFC700"/>
<path d="M2450.47 28.2979L2446.62 24.4422C2446.19 24.0156 2445.5 24.0156 2445.07 24.4422V24.4422C2444.65 24.8677 2444.65 25.5567 2445.07 25.9822L2449.6 30.506C2450.08 30.9904 2450.87 30.9904 2451.35 30.506L2462.93 18.9293C2463.35 18.5038 2463.35 17.8148 2462.93 17.3893V17.3893C2462.5 16.9627 2461.81 16.9627 2461.38 17.3893L2450.47 28.2979Z" fill="black"/>
<path d="M2693.83 28.2979L2689.98 24.4422C2689.55 24.0156 2688.86 24.0156 2688.43 24.4422V24.4422C2688.01 24.8677 2688.01 25.5567 2688.43 25.9822L2692.96 30.506C2693.44 30.9904 2694.23 30.9904 2694.71 30.506L2706.29 18.9293C2706.71 18.5038 2706.71 17.8148 2706.29 17.3893V17.3893C2705.86 16.9627 2705.17 16.9627 2704.74 17.3893L2693.83 28.2979Z" fill="black"/>
<path d="M2937.19 28.2979L2933.34 24.4422C2932.91 24.0156 2932.22 24.0156 2931.79 24.4422V24.4422C2931.37 24.8677 2931.37 25.5567 2931.79 25.9822L2936.32 30.506C2936.8 30.9904 2937.59 30.9904 2938.07 30.506L2949.65 18.9293C2950.07 18.5038 2950.07 17.8148 2949.65 17.3893V17.3893C2949.22 16.9627 2948.53 16.9627 2948.1 17.3893L2937.19 28.2979Z" fill="black"/>
<path d="M3180.55 28.2979L3176.7 24.4422C3176.27 24.0156 3175.58 24.0156 3175.15 24.4422V24.4422C3174.73 24.8677 3174.73 25.5567 3175.15 25.9822L3179.67 30.506C3180.16 30.9904 3180.95 30.9904 3181.43 30.506L3193.01 18.9293C3193.43 18.5038 3193.43 17.8148 3193.01 17.3893V17.3893C3192.58 16.9627 3191.89 16.9627 3191.46 17.3893L3180.55 28.2979Z" fill="black"/>
<path d="M3423.91 28.2979L3420.06 24.4422C3419.63 24.0156 3418.94 24.0156 3418.51 24.4422V24.4422C3418.09 24.8677 3418.09 25.5567 3418.51 25.9822L3423.03 30.506C3423.52 30.9904 3424.3 30.9904 3424.79 30.506L3436.37 18.9293C3436.79 18.5038 3436.79 17.8148 3436.37 17.3893V17.3893C3435.94 16.9627 3435.25 16.9627 3434.82 17.3893L3423.91 28.2979Z" fill="black"/>
<path d="M3667.27 28.2979L3663.42 24.4422C3662.99 24.0156 3662.3 24.0156 3661.87 24.4422V24.4422C3661.44 24.8677 3661.44 25.5567 3661.87 25.9822L3666.39 30.506C3666.88 30.9904 3667.66 30.9904 3668.15 30.506L3679.72 18.9293C3680.15 18.5038 3680.15 17.8148 3679.72 17.3893V17.3893C3679.3 16.9627 3678.61 16.9627 3678.18 17.3893L3667.27 28.2979Z" fill="black"/>
<path d="M3910.63 28.2979L3906.77 24.4422C3906.35 24.0156 3905.66 24.0156 3905.23 24.4422V24.4422C3904.8 24.8677 3904.8 25.5567 3905.23 25.9822L3909.75 30.506C3910.24 30.9904 3911.02 30.9904 3911.51 30.506L3923.08 18.9293C3923.51 18.5038 3923.51 17.8148 3923.08 17.3893V17.3893C3922.66 16.9627 3921.96 16.9627 3921.54 17.3893L3910.63 28.2979Z" fill="black"/>
<path d="M4180 23.1162L4179.83 23" stroke="#FFC700" stroke-width="4"/>
<path d="M4152.72 28.0449L4148.86 24.1893C4148.44 23.7627 4147.75 23.7627 4147.32 24.1893C4146.89 24.6148 4146.89 25.3038 4147.32 25.7293L4151.84 30.2531C4152.33 30.7375 4153.11 30.7375 4153.6 30.2531L4165.17 18.6763C4165.6 18.2509 4165.6 17.5618 4165.17 17.1364C4164.75 16.7098 4164.05 16.7098 4163.63 17.1364L4152.72 28.0449Z" fill="black"/>
<path d="M4169 24.0098L5610.5 24.0098" stroke="#FFC700" stroke-width="4"/>
<path d="M4414.25 24C4414.25 32.2843 4407.53 39 4399.25 39C4390.97 39 4384.25 32.2843 4384.25 24C4384.25 15.7157 4390.97 9 4399.25 9C4407.53 9 4414.25 15.7157 4414.25 24Z" fill="#FFC700"/>
<path d="M4657.61 24C4657.61 32.2843 4650.89 39 4642.61 39C4634.33 39 4627.61 32.2843 4627.61 24C4627.61 15.7157 4634.33 9 4642.61 9C4650.89 9 4657.61 15.7157 4657.61 24Z" fill="#FFC700"/>
<path d="M4900.97 24C4900.97 32.2843 4894.25 39 4885.97 39C4877.68 39 4870.97 32.2843 4870.97 24C4870.97 15.7157 4877.68 9 4885.97 9C4894.25 9 4900.97 15.7157 4900.97 24Z" fill="#FFC700"/>
<path d="M5144.33 24C5144.33 32.2843 5137.61 39 5129.33 39C5121.04 39 5114.33 32.2843 5114.33 24C5114.33 15.7157 5121.04 9 5129.33 9C5137.61 9 5144.33 15.7157 5144.33 24Z" fill="#FFC700"/>
<path d="M5387.69 24C5387.69 32.2843 5380.97 39 5372.69 39C5364.4 39 5357.69 32.2843 5357.69 24C5357.69 15.7157 5364.4 9 5372.69 9C5380.97 9 5387.69 15.7157 5387.69 24Z" fill="#FFC700"/>
<path d="M5639 25C5639 33.2843 5632.28 40 5624 40C5615.72 40 5609 33.2843 5609 25C5609 16.7157 5615 10 5624 10C5632.28 10 5639 16.7157 5639 25Z" fill="#FFC700"/>
<path d="M4395.72 28.2979L4391.87 24.4422C4391.44 24.0156 4390.75 24.0156 4390.32 24.4422V24.4422C4389.9 24.8677 4389.9 25.5567 4390.32 25.9822L4394.85 30.506C4395.33 30.9904 4396.12 30.9904 4396.6 30.506L4408.18 18.9293C4408.6 18.5038 4408.6 17.8148 4408.18 17.3893V17.3893C4407.75 16.9627 4407.06 16.9627 4406.63 17.3893L4395.72 28.2979Z" fill="black"/>
<path d="M4639.08 28.2979L4635.23 24.4422C4634.8 24.0156 4634.11 24.0156 4633.68 24.4422V24.4422C4633.26 24.8677 4633.26 25.5567 4633.68 25.9822L4638.21 30.506C4638.69 30.9904 4639.48 30.9904 4639.96 30.506L4651.54 18.9293C4651.96 18.5038 4651.96 17.8148 4651.54 17.3893V17.3893C4651.11 16.9627 4650.42 16.9627 4649.99 17.3893L4639.08 28.2979Z" fill="black"/>
<path d="M4882.44 28.2979L4878.59 24.4422C4878.16 24.0156 4877.47 24.0156 4877.04 24.4422V24.4422C4876.62 24.8677 4876.62 25.5567 4877.04 25.9822L4881.57 30.506C4882.05 30.9904 4882.84 30.9904 4883.32 30.506L4894.9 18.9293C4895.32 18.5038 4895.32 17.8148 4894.9 17.3893V17.3893C4894.47 16.9627 4893.78 16.9627 4893.35 17.3893L4882.44 28.2979Z" fill="black"/>
<path d="M5125.8 28.2979L5121.95 24.4422C5121.52 24.0156 5120.83 24.0156 5120.4 24.4422V24.4422C5119.98 24.8677 5119.98 25.5567 5120.4 25.9822L5124.92 30.506C5125.41 30.9904 5126.2 30.9904 5126.68 30.506L5138.26 18.9293C5138.68 18.5038 5138.68 17.8148 5138.26 17.3893V17.3893C5137.83 16.9627 5137.14 16.9627 5136.71 17.3893L5125.8 28.2979Z" fill="black"/>
<path d="M5367.89 28.0449L5364.04 24.1893C5363.61 23.7627 5362.92 23.7627 5362.49 24.1893C5362.07 24.6148 5362.07 25.3038 5362.49 25.7293L5367.01 30.2531C5367.5 30.7375 5368.29 30.7375 5368.77 30.2531L5380.35 18.6763C5380.77 18.2509 5380.77 17.5618 5380.35 17.1364C5379.92 16.7098 5379.23 16.7098 5378.8 17.1364L5367.89 28.0449Z" fill="black"/>
<path d="M5620.72 28.2285L5616.86 24.3729C5616.44 23.9463 5615.75 23.9463 5615.32 24.3729C5614.89 24.7984 5614.89 25.4874 5615.32 25.9129L5619.84 30.4367C5620.33 30.9211 5621.11 30.9211 5621.6 30.4367L5633.17 18.8599C5633.6 18.4344 5633.6 17.7454 5633.17 17.3199C5632.75 16.8934 5632.05 16.8934 5631.63 17.3199L5620.72 28.2285Z" fill="black"/>
<path fill-rule="evenodd" clip-rule="evenodd" d="M2205.06 24.492C2205.06 32.3359 2198.67 38.6945 2190.8 38.6945C2182.93 38.6945 2176.54 32.3359 2176.54 24.492C2176.54 16.6482 2182.93 10.2896 2190.8 10.2896C2198.67 10.2896 2205.06 16.6482 2205.06 24.492Z" fill="url(#paint3_linear_1602_223)"/>
<path d="M45.543 24.2896H1992.54" stroke="#FFC700" stroke-width="4"/>
<path d="M38.1836 25.1836C38.1836 33.4679 31.4679 40.1836 23.1836 40.1836C14.8993 40.1836 8.18359 33.4679 8.18359 25.1836C8.18359 16.8993 14.8993 10.1836 23.1836 10.1836C31.4679 10.1836 38.1836 16.8993 38.1836 25.1836Z" fill="#FFC700"/>
<path d="M281.543 25.1836C281.543 33.4679 274.827 40.1836 266.543 40.1836C258.259 40.1836 251.543 33.4679 251.543 25.1836C251.543 16.8993 258.259 10.1836 266.543 10.1836C274.827 10.1836 281.543 16.8993 281.543 25.1836Z" fill="#FFC700"/>
<path d="M524.902 25.1836C524.902 33.4679 518.187 40.1836 509.902 40.1836C501.618 40.1836 494.902 33.4679 494.902 25.1836C494.902 16.8993 501.618 10.1836 509.902 10.1836C518.187 10.1836 524.902 16.8993 524.902 25.1836Z" fill="#FFC700"/>
<path d="M768.262 25.1836C768.262 33.4679 761.546 40.1836 753.262 40.1836C744.977 40.1836 738.262 33.4679 738.262 25.1836C738.262 16.8993 744.977 10.1836 753.262 10.1836C761.546 10.1836 768.262 16.8993 768.262 25.1836Z" fill="#FFC700"/>
<path d="M1011.62 25.1836C1011.62 33.4679 1004.91 40.1836 996.621 40.1836C988.337 40.1836 981.621 33.4679 981.621 25.1836C981.621 16.8993 988.337 10.1836 996.621 10.1836C1004.91 10.1836 1011.62 16.8993 1011.62 25.1836Z" fill="#FFC700"/>
<path d="M1254.98 25.1836C1254.98 33.4679 1248.26 40.1836 1239.98 40.1836C1231.7 40.1836 1224.98 33.4679 1224.98 25.1836C1224.98 16.8993 1231.7 10.1836 1239.98 10.1836C1248.26 10.1836 1254.98 16.8993 1254.98 25.1836Z" fill="#FFC700"/>
<path d="M1498.34 25.1836C1498.34 33.4679 1491.62 40.1836 1483.34 40.1836C1475.06 40.1836 1468.34 33.4679 1468.34 25.1836C1468.34 16.8993 1475.06 10.1836 1483.34 10.1836C1491.62 10.1836 1498.34 16.8993 1498.34 25.1836Z" fill="#FFC700"/>
<path d="M1741.7 25.1836C1741.7 33.4679 1734.98 40.1836 1726.7 40.1836C1718.41 40.1836 1711.7 33.4679 1711.7 25.1836C1711.7 16.8993 1718.41 10.1836 1726.7 10.1836C1734.98 10.1836 1741.7 16.8993 1741.7 25.1836Z" fill="#FFC700"/>
<path d="M1985.06 25.1836C1985.06 33.4679 1978.34 40.1836 1970.06 40.1836C1961.77 40.1836 1955.06 33.4679 1955.06 25.1836C1955.06 16.8993 1961.77 10.1836 1970.06 10.1836C1978.34 10.1836 1985.06 16.8993 1985.06 25.1836Z" fill="#FFC700"/>
<path d="M23.1837 46.8673C35.1592 46.8673 44.8673 37.1592 44.8673 25.1837C44.8673 13.2081 35.1592 3.5 23.1837 3.5C11.2081 3.5 1.5 13.2081 1.5 25.1837C1.5 37.1592 11.2081 46.8673 23.1837 46.8673Z" stroke="#FFC700" stroke-width="3"/>
<path d="M19.6577 29.4814L15.8022 25.6258C15.3756 25.1992 14.6832 25.1992 14.2566 25.6258V25.6258C13.8311 26.0513 13.8311 26.7403 14.2566 27.1658L18.7802 31.6896C19.2646 32.174 20.0508 32.174 20.5351 31.6896L32.1113 20.1129C32.5368 19.6874 32.5368 18.9984 32.1113 18.5729V18.5729C31.6847 18.1463 30.9923 18.1463 30.5657 18.5729L19.6577 29.4814Z" fill="black"/>
<path d="M263.017 29.4814L259.162 25.6258C258.735 25.1992 258.043 25.1992 257.616 25.6258V25.6258C257.191 26.0513 257.191 26.7403 257.616 27.1658L262.14 31.6896C262.624 32.174 263.41 32.174 263.894 31.6896L275.471 20.1129C275.896 19.6874 275.896 18.9984 275.471 18.5729V18.5729C275.044 18.1463 274.352 18.1463 273.925 18.5729L263.017 29.4814Z" fill="black"/>
<path d="M506.376 29.4814L502.521 25.6258C502.094 25.1992 501.402 25.1992 500.975 25.6258V25.6258C500.55 26.0513 500.55 26.7403 500.975 27.1658L505.499 31.6896C505.983 32.174 506.77 32.174 507.254 31.6896L518.83 20.1129C519.256 19.6874 519.256 18.9984 518.83 18.5729V18.5729C518.403 18.1463 517.711 18.1463 517.284 18.5729L506.376 29.4814Z" fill="black"/>
<path d="M749.736 29.4814L745.88 25.6258C745.454 25.1992 744.761 25.1992 744.335 25.6258V25.6258C743.909 26.0513 743.909 26.7403 744.335 27.1658L748.858 31.6896C749.343 32.174 750.129 32.174 750.613 31.6896L762.189 20.1129C762.615 19.6874 762.615 18.9984 762.189 18.5729V18.5729C761.763 18.1463 761.07 18.1463 760.644 18.5729L749.736 29.4814Z" fill="black"/>
<path d="M993.095 29.4814L989.24 25.6258C988.813 25.1992 988.121 25.1992 987.694 25.6258V25.6258C987.269 26.0513 987.269 26.7403 987.694 27.1658L992.218 31.6896C992.702 32.174 993.488 32.174 993.973 31.6896L1005.55 20.1129C1005.97 19.6874 1005.97 18.9984 1005.55 18.5729V18.5729C1005.12 18.1463 1004.43 18.1463 1004 18.5729L993.095 29.4814Z" fill="black"/>
<path d="M1236.45 29.4814L1232.6 25.6258C1232.17 25.1992 1231.48 25.1992 1231.05 25.6258V25.6258C1230.63 26.0513 1230.63 26.7403 1231.05 27.1658L1235.58 31.6896C1236.06 32.174 1236.85 32.174 1237.33 31.6896L1248.91 20.1129C1249.33 19.6874 1249.33 18.9984 1248.91 18.5729V18.5729C1248.48 18.1463 1247.79 18.1463 1247.36 18.5729L1236.45 29.4814Z" fill="black"/>
<path d="M1479.81 29.4814L1475.96 25.6258C1475.53 25.1992 1474.84 25.1992 1474.41 25.6258V25.6258C1473.99 26.0513 1473.99 26.7403 1474.41 27.1658L1478.94 31.6896C1479.42 32.174 1480.21 32.174 1480.69 31.6896L1492.27 20.1129C1492.69 19.6874 1492.69 18.9984 1492.27 18.5729V18.5729C1491.84 18.1463 1491.15 18.1463 1490.72 18.5729L1479.81 29.4814Z" fill="black"/>
<path d="M1723.17 29.4814L1719.32 25.6258C1718.89 25.1992 1718.2 25.1992 1717.77 25.6258V25.6258C1717.35 26.0513 1717.35 26.7403 1717.77 27.1658L1722.3 31.6896C1722.78 32.174 1723.57 32.174 1724.05 31.6896L1735.63 20.1129C1736.05 19.6874 1736.05 18.9984 1735.63 18.5729V18.5729C1735.2 18.1463 1734.51 18.1463 1734.08 18.5729L1723.17 29.4814Z" fill="black"/>
<path d="M2203.59 24.492C2203.59 31.5217 2197.87 37.2299 2190.8 37.2299C2183.73 37.2299 2178.01 31.5217 2178.01 24.492C2178.01 17.4624 2183.73 11.7542 2190.8 11.7542C2197.87 11.7542 2203.59 17.4624 2203.59 24.492Z" stroke="#743DFE" stroke-width="2.92929"/>
<path d="M1992.54 24.2998H2438.54" stroke="#FFC700" stroke-width="4"/>
<path d="M1965.26 29.2285L1961.41 25.3729C1960.98 24.9463 1960.29 24.9463 1959.86 25.3729C1959.44 25.7984 1959.44 26.4874 1959.86 26.9129L1964.39 31.4367C1964.87 31.9211 1965.66 31.9211 1966.14 31.4367L1977.72 19.8599C1978.14 19.4344 1978.14 18.7454 1977.72 18.3199C1977.29 17.8934 1976.6 17.8934 1976.17 18.3199L1965.26 29.2285Z" fill="black"/>
<path d="M2205.54 24C2205.54 32.2843 2198.83 39 2190.54 39C2182.26 39 2175.54 32.2843 2175.54 24C2175.54 15.7157 2182.26 9 2190.54 9C2198.83 9 2205.54 15.7157 2205.54 24Z" fill="#FFC700"/>
<path d="M2187.26 29.2285L2183.41 25.3729C2182.98 24.9463 2182.29 24.9463 2181.86 25.3729V25.3729C2181.44 25.7984 2181.44 26.4874 2181.86 26.9129L2186.39 31.4367C2186.87 31.9211 2187.66 31.9211 2188.14 31.4367L2199.72 19.8599C2200.14 19.4344 2200.14 18.7454 2199.72 18.3199V18.3199C2199.29 17.8934 2198.6 17.8934 2198.17 18.3199L2187.26 29.2285Z" fill="black"/>
<defs>
<linearGradient id="paint0_linear_1602_223" x1="4930.6" y1="20.7149" x2="8747.94" y2="-885.722" gradientUnits="userSpaceOnUse">
<stop stop-color="#FF54CF"/>
<stop offset="0.526042" stop-color="#6F3CFF"/>
<stop offset="1" stop-color="#FF54CF"/>
</linearGradient>
<linearGradient id="paint1_linear_1602_223" x1="4192.6" y1="21.4251" x2="8009.94" y2="-885.011" gradientUnits="userSpaceOnUse">
<stop stop-color="#FF54CF"/>
<stop offset="0.526042" stop-color="#6F3CFF"/>
<stop offset="1" stop-color="#FF54CF"/>
</linearGradient>
<linearGradient id="paint2_linear_1602_223" x1="3453.6" y1="22.4251" x2="7270.94" y2="-884.011" gradientUnits="userSpaceOnUse">
<stop stop-color="#FF54CF"/>
<stop offset="0.526042" stop-color="#6F3CFF"/>
<stop offset="1" stop-color="#FF54CF"/>
</linearGradient>
<linearGradient id="paint3_linear_1602_223" x1="2176.32" y1="5.40718" x2="2216.51" y2="5.39934" gradientUnits="userSpaceOnUse">
<stop stop-color="#FF54CF"/>
<stop offset="0.526042" stop-color="#6F3CFF"/>
<stop offset="1" stop-color="#FF54CF"/>
</linearGradient>
</defs>
</svg>
