<svg width="8765" height="50" viewBox="0 0 8765 50" fill="none" xmlns="http://www.w3.org/2000/svg">
<path fill-rule="evenodd" clip-rule="evenodd" d="M8518.35 24.2796C8518.45 23.6017 8518.5 22.9082 8518.5 22.2028C8518.5 22.1137 8518.5 22.0247 8518.5 21.936L8719 21.8281C8719.65 21.8278 8720.17 22.3521 8720.17 22.9992C8720.17 23.6463 8719.65 24.1712 8719 24.1716L8518.35 24.2796ZM8490.14 24.2947C8490.04 23.612 8489.99 22.9135 8489.99 22.2028C8489.99 22.1188 8489.99 22.035 8489.99 21.9514L8288.24 22.06C8288.24 22.1104 8288.25 22.1608 8288.26 22.2113C8288.18 22.9562 8288.07 23.6884 8287.91 24.4036L8490.14 24.2947ZM8260.99 24.4181C8260.74 23.8795 8260.5 23.335 8260.26 22.7874V22.7872L8260 22.2113C8260.01 22.1659 8260.03 22.1205 8260.04 22.0751L8058.14 22.1838C8058.21 22.7848 8058.26 23.3975 8058.26 24.0196C8058.26 24.1895 8058.25 24.3587 8058.25 24.5272L8260.99 24.4181ZM8030.77 24.542C8030.68 24.3687 8030.59 24.1946 8030.5 24.0196C8030.82 23.43 8031.13 22.8196 8031.44 22.1982L7826.77 22.3083C7827.14 23.0787 7827.52 23.8624 7827.92 24.6511L8030.77 24.542ZM7800.24 24.666C7800.25 23.8674 7800.32 23.0845 7800.46 22.3225L7598.79 22.431C7598.81 22.7812 7598.83 23.1348 7598.83 23.4915C7598.83 23.924 7598.81 24.3519 7598.77 24.7745L7800.24 24.666ZM7572.3 24.7887L7356.76 24.9047C7356.81 24.4399 7356.83 23.9684 7356.83 23.4915C7356.83 23.179 7356.82 22.8688 7356.8 22.5613L7572.14 22.4454C7571.94 22.7967 7571.72 23.1458 7571.5 23.4915C7571.78 23.9296 7572.05 24.3622 7572.3 24.7887ZM7114.75 25.035L7330.26 24.919C7330.02 24.4527 7329.77 23.9767 7329.5 23.4915C7329.67 23.1848 7329.84 22.8794 7330 22.5757L7114.81 22.6915C7114.82 22.9563 7114.83 23.2229 7114.83 23.4914C7114.83 24.0129 7114.8 24.528 7114.75 25.035ZM7089.03 25.0488L6859.17 25.1725C6858.53 25.1729 6858 24.6486 6858 24.0015C6858 23.3543 6858.52 22.8295 6859.17 22.8291L7089.14 22.7053C7088.94 23.1383 7088.73 23.5704 7088.5 23.9998C7088.68 24.3541 7088.86 24.7039 7089.03 25.0488Z" fill="url(#paint0_linear_1634_230)"/>
<path d="M8742 44.5C8753.87 44.5 8763.5 34.8741 8763.5 23C8763.5 11.1259 8753.87 1.5 8742 1.5C8730.13 1.5 8720.5 11.1259 8720.5 23C8720.5 34.8741 8730.13 44.5 8742 44.5Z" stroke="#A846EC" stroke-width="3"/>
<path fill-rule="evenodd" clip-rule="evenodd" d="M8742 38C8750.28 38 8757 31.2843 8757 23C8757 14.7157 8750.28 8 8742 8C8733.72 8 8727 14.7157 8727 23C8727 31.2843 8733.72 38 8742 38ZM8733.8 23C8733.8 23.5311 8733.98 23.9763 8734.34 24.3355C8734.7 24.6948 8735.14 24.8744 8735.67 24.8744C8736.2 24.8744 8736.65 24.6948 8737.01 24.3355C8737.37 23.9763 8737.55 23.5311 8737.55 23C8737.55 22.4689 8737.37 22.0237 8737.01 21.6644C8736.65 21.3051 8736.2 21.1255 8735.67 21.1255C8735.14 21.1255 8734.7 21.3051 8734.34 21.6644C8733.98 22.0237 8733.8 22.4689 8733.8 23ZM8740.13 23C8740.13 23.5311 8740.31 23.9763 8740.66 24.3355C8741.02 24.6948 8741.47 24.8744 8742 24.8744C8742.53 24.8744 8742.98 24.6948 8743.34 24.3355C8743.69 23.9763 8743.87 23.5311 8743.87 23C8743.87 22.4689 8743.69 22.0237 8743.34 21.6644C8742.98 21.3051 8742.53 21.1255 8742 21.1255C8741.47 21.1255 8741.02 21.3051 8740.66 21.6644C8740.31 22.0237 8740.13 22.4689 8740.13 23ZM8746.45 23C8746.45 23.5311 8746.63 23.9763 8746.99 24.3355C8747.35 24.6948 8747.8 24.8744 8748.33 24.8744C8748.86 24.8744 8749.3 24.6948 8749.66 24.3355C8750.02 23.9763 8750.2 23.5311 8750.2 23C8750.2 22.4689 8750.02 22.0237 8749.66 21.6644C8749.3 21.3051 8748.86 21.1255 8748.33 21.1255C8747.8 21.1255 8747.35 21.3051 8746.99 21.6644C8746.63 22.0237 8746.45 22.4689 8746.45 23Z" fill="#A846EC"/>
<path d="M7827.05 24.2025C7827.05 31.2322 7821.33 36.9403 7814.26 36.9403C7807.19 36.9403 7801.46 31.2322 7801.46 24.2025C7801.46 17.1728 7807.19 11.4646 7814.26 11.4646C7821.33 11.4646 7827.05 17.1728 7827.05 24.2025Z" stroke="#9643F3" stroke-width="2.92929"/>
<path d="M7113.39 23.4916C7113.39 30.5213 7107.67 36.2294 7100.6 36.2294C7093.53 36.2294 7087.81 30.5213 7087.81 23.4916C7087.81 16.4619 7093.53 10.7537 7100.6 10.7537C7107.67 10.7537 7113.39 16.4619 7113.39 23.4916Z" stroke="#743DFE" stroke-width="2.92929"/>
<path d="M7355.39 23.4916C7355.39 30.5213 7349.67 36.2294 7342.6 36.2294C7335.53 36.2294 7329.81 30.5213 7329.81 23.4916C7329.81 16.4619 7335.53 10.7537 7342.6 10.7537C7349.67 10.7537 7355.39 16.4619 7355.39 23.4916Z" stroke="#8440F9" stroke-width="2.92929"/>
<path d="M7597.39 23.4916C7597.39 30.5213 7591.67 36.2294 7584.6 36.2294C7577.53 36.2294 7571.81 30.5213 7571.81 23.4916C7571.81 16.4619 7577.53 10.7537 7584.6 10.7537C7591.67 10.7537 7597.39 16.4619 7597.39 23.4916Z" stroke="#9643F3" stroke-width="2.92929"/>
<path d="M8057.05 24.2025C8057.05 31.2322 8051.33 36.9403 8044.26 36.9403C8037.19 36.9403 8031.46 31.2322 8031.46 24.2025C8031.46 17.1728 8037.19 11.4646 8044.26 11.4646C8051.33 11.4646 8057.05 17.1728 8057.05 24.2025Z" stroke="#9643F3" stroke-width="2.92929"/>
<path d="M8287.05 22.2025C8287.05 29.2322 8281.33 34.9403 8274.26 34.9403C8267.19 34.9403 8261.46 29.2322 8261.46 22.2025C8261.46 15.1728 8267.19 9.46465 8274.26 9.46465C8281.33 9.46465 8287.05 15.1728 8287.05 22.2025Z" stroke="#9643F3" stroke-width="2.92929"/>
<path d="M8517.05 22.2025C8517.05 29.2322 8511.33 34.9403 8504.26 34.9403C8497.19 34.9403 8491.46 29.2322 8491.46 22.2025C8491.46 15.1728 8497.19 9.46465 8504.26 9.46465C8511.33 9.46465 8517.05 15.1728 8517.05 22.2025Z" stroke="#9643F3" stroke-width="2.92929"/>
<path fill-rule="evenodd" clip-rule="evenodd" d="M6832.35 24.9207C6832.33 24.6828 6832.33 24.4434 6832.33 24.2026C6832.33 23.6529 6832.36 23.1106 6832.42 22.5771L6618.78 22.8659C6618.82 23.306 6618.84 23.7518 6618.84 24.2026C6618.84 24.5411 6618.83 24.8768 6618.81 25.2093L6832.35 24.9207ZM6376.78 25.5365L6590.37 25.2478C6590.34 24.9027 6590.33 24.5541 6590.33 24.2026C6590.33 23.7649 6590.35 23.3319 6590.39 22.9043L6376.81 23.193C6376.83 23.5264 6376.84 23.863 6376.84 24.2024C6376.84 24.6523 6376.82 25.0973 6376.78 25.5365ZM6348.4 25.5748L6121.17 25.882C6120.53 25.8828 6120 25.3589 6120 24.7118C6120 24.0647 6120.52 23.5394 6121.17 23.5385L6348.36 23.2314C6348.34 23.5523 6348.33 23.8761 6348.33 24.2024C6348.33 24.6654 6348.35 25.1232 6348.4 25.5748Z" fill="url(#paint1_linear_1634_230)"/>
<path d="M6375.39 24.2025C6375.39 31.2322 6369.67 36.9403 6362.6 36.9403C6355.53 36.9403 6349.81 31.2322 6349.81 24.2025C6349.81 17.1728 6355.53 11.4646 6362.6 11.4646C6369.67 11.4646 6375.39 17.1728 6375.39 24.2025Z" stroke="#743DFE" stroke-width="2.92929"/>
<path d="M6617.39 24.2025C6617.39 31.2322 6611.67 36.9403 6604.6 36.9403C6597.53 36.9403 6591.81 31.2322 6591.81 24.2025C6591.81 17.1728 6597.53 11.4646 6604.6 11.4646C6611.67 11.4646 6617.39 17.1728 6617.39 24.2025Z" stroke="#8440F9" stroke-width="2.92929"/>
<path d="M6859.39 24.2025C6859.39 31.2322 6853.67 36.9403 6846.6 36.9403C6839.53 36.9403 6833.81 31.2322 6833.81 24.2025C6833.81 17.1728 6839.53 11.4646 6846.6 11.4646C6853.67 11.4646 6859.39 17.1728 6859.39 24.2025Z" stroke="#9643F3" stroke-width="2.92929"/>
<path fill-rule="evenodd" clip-rule="evenodd" d="M6093.35 25.9207C6093.33 25.6828 6093.33 25.4434 6093.33 25.2026C6093.33 24.6529 6093.36 24.1106 6093.42 23.5771L5879.78 23.8659C5879.82 24.306 5879.84 24.7518 5879.84 25.2026C5879.84 25.5411 5879.83 25.8768 5879.81 26.2093L6093.35 25.9207ZM5637.78 26.5365L5851.37 26.2478C5851.34 25.9027 5851.33 25.5541 5851.33 25.2026C5851.33 24.7649 5851.35 24.3319 5851.39 23.9043L5637.81 24.193C5637.83 24.5264 5637.84 24.863 5637.84 25.2024C5637.84 25.6523 5637.82 26.0973 5637.78 26.5365ZM5609.4 26.5748L5382.17 26.882C5381.53 26.8828 5381 26.3589 5381 25.7118C5381 25.0647 5381.52 24.5394 5382.17 24.5385L5609.36 24.2314C5609.34 24.5523 5609.33 24.8761 5609.33 25.2024C5609.33 25.6654 5609.35 26.1232 5609.4 26.5748Z" fill="url(#paint2_linear_1634_230)"/>
<path d="M5636.39 25.2025C5636.39 32.2322 5630.67 37.9403 5623.6 37.9403C5616.53 37.9403 5610.81 32.2322 5610.81 25.2025C5610.81 18.1728 5616.53 12.4646 5623.6 12.4646C5630.67 12.4646 5636.39 18.1728 5636.39 25.2025Z" stroke="#743DFE" stroke-width="2.92929"/>
<path d="M5878.39 25.2025C5878.39 32.2322 5872.67 37.9403 5865.6 37.9403C5858.53 37.9403 5852.81 32.2322 5852.81 25.2025C5852.81 18.1728 5858.53 12.4646 5865.6 12.4646C5872.67 12.4646 5878.39 18.1728 5878.39 25.2025Z" stroke="#8440F9" stroke-width="2.92929"/>
<path d="M6120.39 25.2025C6120.39 32.2322 6114.67 37.9403 6107.6 37.9403C6100.53 37.9403 6094.81 32.2322 6094.81 25.2025C6094.81 18.1728 6100.53 12.4646 6107.6 12.4646C6114.67 12.4646 6120.39 18.1728 6120.39 25.2025Z" stroke="#9643F3" stroke-width="2.92929"/>
<path d="M2439.33 26L4158 24.9984" stroke="#FFC700" stroke-width="4"/>
<path d="M2469 25C2469 33.2843 2462.28 40 2454 40C2445.72 40 2439 33.2843 2439 25C2439 16.7157 2445.72 10 2454 10C2462.28 10 2469 16.7157 2469 25Z" fill="#FFC700"/>
<path d="M2712.36 25C2712.36 33.2843 2705.64 40 2697.36 40C2689.08 40 2682.36 33.2843 2682.36 25C2682.36 16.7157 2689.08 10 2697.36 10C2705.64 10 2712.36 16.7157 2712.36 25Z" fill="#FFC700"/>
<path d="M2955.72 25C2955.72 33.2843 2949 40 2940.72 40C2932.43 40 2925.72 33.2843 2925.72 25C2925.72 16.7157 2932.43 10 2940.72 10C2949 10 2955.72 16.7157 2955.72 25Z" fill="#FFC700"/>
<path d="M3199.08 25C3199.08 33.2843 3192.36 40 3184.08 40C3175.79 40 3169.08 33.2843 3169.08 25C3169.08 16.7157 3175.79 10 3184.08 10C3192.36 10 3199.08 16.7157 3199.08 25Z" fill="#FFC700"/>
<path d="M3442.44 25C3442.44 33.2843 3435.72 40 3427.44 40C3419.15 40 3412.44 33.2843 3412.44 25C3412.44 16.7157 3419.15 10 3427.44 10C3435.72 10 3442.44 16.7157 3442.44 25Z" fill="#FFC700"/>
<path d="M3685.8 25C3685.8 33.2843 3679.08 40 3670.8 40C3662.51 40 3655.8 33.2843 3655.8 25C3655.8 16.7157 3662.51 10 3670.8 10C3679.08 10 3685.8 16.7157 3685.8 25Z" fill="#FFC700"/>
<path d="M3929.16 25C3929.16 33.2843 3922.44 40 3914.16 40C3905.87 40 3899.16 33.2843 3899.16 25C3899.16 16.7157 3905.87 10 3914.16 10C3922.44 10 3929.16 16.7157 3929.16 25Z" fill="#FFC700"/>
<path d="M4172.52 25C4172.52 33.2843 4165.8 40 4157.52 40C4149.23 40 4142.52 33.2843 4142.52 25C4142.52 16.7157 4149.23 10 4157.52 10C4165.8 10 4172.52 16.7157 4172.52 25Z" fill="#FFC700"/>
<path d="M2450.47 29.2979L2446.62 25.4422C2446.19 25.0156 2445.5 25.0156 2445.07 25.4422V25.4422C2444.65 25.8677 2444.65 26.5567 2445.07 26.9822L2449.6 31.506C2450.08 31.9904 2450.87 31.9904 2451.35 31.506L2462.93 19.9293C2463.35 19.5038 2463.35 18.8148 2462.93 18.3893V18.3893C2462.5 17.9627 2461.81 17.9627 2461.38 18.3893L2450.47 29.2979Z" fill="black"/>
<path d="M2693.83 29.2979L2689.98 25.4422C2689.55 25.0156 2688.86 25.0156 2688.43 25.4422V25.4422C2688.01 25.8677 2688.01 26.5567 2688.43 26.9822L2692.96 31.506C2693.44 31.9904 2694.23 31.9904 2694.71 31.506L2706.29 19.9293C2706.71 19.5038 2706.71 18.8148 2706.29 18.3893V18.3893C2705.86 17.9627 2705.17 17.9627 2704.74 18.3893L2693.83 29.2979Z" fill="black"/>
<path d="M2937.19 29.2979L2933.34 25.4422C2932.91 25.0156 2932.22 25.0156 2931.79 25.4422V25.4422C2931.37 25.8677 2931.37 26.5567 2931.79 26.9822L2936.32 31.506C2936.8 31.9904 2937.59 31.9904 2938.07 31.506L2949.65 19.9293C2950.07 19.5038 2950.07 18.8148 2949.65 18.3893V18.3893C2949.22 17.9627 2948.53 17.9627 2948.1 18.3893L2937.19 29.2979Z" fill="black"/>
<path d="M3180.55 29.2979L3176.7 25.4422C3176.27 25.0156 3175.58 25.0156 3175.15 25.4422V25.4422C3174.73 25.8677 3174.73 26.5567 3175.15 26.9822L3179.67 31.506C3180.16 31.9904 3180.95 31.9904 3181.43 31.506L3193.01 19.9293C3193.43 19.5038 3193.43 18.8148 3193.01 18.3893V18.3893C3192.58 17.9627 3191.89 17.9627 3191.46 18.3893L3180.55 29.2979Z" fill="black"/>
<path d="M3423.91 29.2979L3420.06 25.4422C3419.63 25.0156 3418.94 25.0156 3418.51 25.4422V25.4422C3418.09 25.8677 3418.09 26.5567 3418.51 26.9822L3423.03 31.506C3423.52 31.9904 3424.3 31.9904 3424.79 31.506L3436.37 19.9293C3436.79 19.5038 3436.79 18.8148 3436.37 18.3893V18.3893C3435.94 17.9627 3435.25 17.9627 3434.82 18.3893L3423.91 29.2979Z" fill="black"/>
<path d="M3667.27 29.2979L3663.42 25.4422C3662.99 25.0156 3662.3 25.0156 3661.87 25.4422V25.4422C3661.44 25.8677 3661.44 26.5567 3661.87 26.9822L3666.39 31.506C3666.88 31.9904 3667.66 31.9904 3668.15 31.506L3679.72 19.9293C3680.15 19.5038 3680.15 18.8148 3679.72 18.3893V18.3893C3679.3 17.9627 3678.61 17.9627 3678.18 18.3893L3667.27 29.2979Z" fill="black"/>
<path d="M3910.63 29.2979L3906.77 25.4422C3906.35 25.0156 3905.66 25.0156 3905.23 25.4422V25.4422C3904.8 25.8677 3904.8 26.5567 3905.23 26.9822L3909.75 31.506C3910.24 31.9904 3911.02 31.9904 3911.51 31.506L3923.08 19.9293C3923.51 19.5038 3923.51 18.8148 3923.08 18.3893V18.3893C3922.66 17.9627 3921.96 17.9627 3921.54 18.3893L3910.63 29.2979Z" fill="black"/>
<path d="M4180 24.1162L4179.83 24" stroke="#FFC700" stroke-width="4"/>
<path d="M4152.72 29.0449L4148.86 25.1893C4148.44 24.7627 4147.75 24.7627 4147.32 25.1893C4146.89 25.6148 4146.89 26.3038 4147.32 26.7293L4151.84 31.2531C4152.33 31.7375 4153.11 31.7375 4153.6 31.2531L4165.17 19.6763C4165.6 19.2509 4165.6 18.5618 4165.17 18.1364C4164.75 17.7098 4164.05 17.7098 4163.63 18.1364L4152.72 29.0449Z" fill="black"/>
<path d="M4169 25.7949L6114.15 24.7564" stroke="#FFC700" stroke-width="4"/>
<path d="M4414.25 25C4414.25 33.2843 4407.53 40 4399.25 40C4390.97 40 4384.25 33.2843 4384.25 25C4384.25 16.7157 4390.97 10 4399.25 10C4407.53 10 4414.25 16.7157 4414.25 25Z" fill="#FFC700"/>
<path d="M4657.61 25C4657.61 33.2843 4650.89 40 4642.61 40C4634.33 40 4627.61 33.2843 4627.61 25C4627.61 16.7157 4634.33 10 4642.61 10C4650.89 10 4657.61 16.7157 4657.61 25Z" fill="#FFC700"/>
<path d="M4900.97 25C4900.97 33.2843 4894.25 40 4885.97 40C4877.68 40 4870.97 33.2843 4870.97 25C4870.97 16.7157 4877.68 10 4885.97 10C4894.25 10 4900.97 16.7157 4900.97 25Z" fill="#FFC700"/>
<path d="M5144.33 25C5144.33 33.2843 5137.61 40 5129.33 40C5121.04 40 5114.33 33.2843 5114.33 25C5114.33 16.7157 5121.04 10 5129.33 10C5137.61 10 5144.33 16.7157 5144.33 25Z" fill="#FFC700"/>
<path d="M5387.69 25C5387.69 33.2843 5380.97 40 5372.69 40C5364.4 40 5357.69 33.2843 5357.69 25C5357.69 16.7157 5364.4 10 5372.69 10C5380.97 10 5387.69 16.7157 5387.69 25Z" fill="#FFC700"/>
<path d="M5639 26C5639 34.2843 5632.28 41 5624 41C5615.72 41 5609 34.2843 5609 26C5609 17.7157 5615 11 5624 11C5632.28 11 5639 17.7157 5639 26Z" fill="#FFC700"/>
<path d="M5881 25C5881 33.2843 5874.28 40 5866 40C5857.72 40 5851 33.2843 5851 25C5851 16.7157 5857 10 5866 10C5874.28 10 5881 16.7157 5881 25Z" fill="#FFC700"/>
<path d="M6123 25C6123 33.2843 6116.28 40 6108 40C6099.72 40 6093 33.2843 6093 25C6093 16.7157 6099 10 6108 10C6116.28 10 6123 16.7157 6123 25Z" fill="#FFC700"/>
<path d="M4395.72 29.2979L4391.87 25.4422C4391.44 25.0156 4390.75 25.0156 4390.32 25.4422V25.4422C4389.9 25.8677 4389.9 26.5567 4390.32 26.9822L4394.85 31.506C4395.33 31.9904 4396.12 31.9904 4396.6 31.506L4408.18 19.9293C4408.6 19.5038 4408.6 18.8148 4408.18 18.3893V18.3893C4407.75 17.9627 4407.06 17.9627 4406.63 18.3893L4395.72 29.2979Z" fill="black"/>
<path d="M4639.08 29.2979L4635.23 25.4422C4634.8 25.0156 4634.11 25.0156 4633.68 25.4422V25.4422C4633.26 25.8677 4633.26 26.5567 4633.68 26.9822L4638.21 31.506C4638.69 31.9904 4639.48 31.9904 4639.96 31.506L4651.54 19.9293C4651.96 19.5038 4651.96 18.8148 4651.54 18.3893V18.3893C4651.11 17.9627 4650.42 17.9627 4649.99 18.3893L4639.08 29.2979Z" fill="black"/>
<path d="M4882.44 29.2979L4878.59 25.4422C4878.16 25.0156 4877.47 25.0156 4877.04 25.4422V25.4422C4876.62 25.8677 4876.62 26.5567 4877.04 26.9822L4881.57 31.506C4882.05 31.9904 4882.84 31.9904 4883.32 31.506L4894.9 19.9293C4895.32 19.5038 4895.32 18.8148 4894.9 18.3893V18.3893C4894.47 17.9627 4893.78 17.9627 4893.35 18.3893L4882.44 29.2979Z" fill="black"/>
<path d="M5125.8 29.2979L5121.95 25.4422C5121.52 25.0156 5120.83 25.0156 5120.4 25.4422V25.4422C5119.98 25.8677 5119.98 26.5567 5120.4 26.9822L5124.92 31.506C5125.41 31.9904 5126.2 31.9904 5126.68 31.506L5138.26 19.9293C5138.68 19.5038 5138.68 18.8148 5138.26 18.3893V18.3893C5137.83 17.9627 5137.14 17.9627 5136.71 18.3893L5125.8 29.2979Z" fill="black"/>
<path d="M5367.89 29.0449L5364.04 25.1893C5363.61 24.7627 5362.92 24.7627 5362.49 25.1893C5362.07 25.6148 5362.07 26.3038 5362.49 26.7293L5367.01 31.2531C5367.5 31.7375 5368.29 31.7375 5368.77 31.2531L5380.35 19.6763C5380.77 19.2509 5380.77 18.5618 5380.35 18.1364C5379.92 17.7098 5379.23 17.7098 5378.8 18.1364L5367.89 29.0449Z" fill="black"/>
<path d="M5620.72 29.2285L5616.86 25.3729C5616.44 24.9463 5615.75 24.9463 5615.32 25.3729C5614.89 25.7984 5614.89 26.4874 5615.32 26.9129L5619.84 31.4367C5620.33 31.9211 5621.11 31.9211 5621.6 31.4367L5633.17 19.8599C5633.6 19.4344 5633.6 18.7454 5633.17 18.3199C5632.75 17.8934 5632.05 17.8934 5631.63 18.3199L5620.72 29.2285Z" fill="black"/>
<path d="M5862.72 28.2285L5858.86 24.3729C5858.44 23.9463 5857.75 23.9463 5857.32 24.3729C5856.89 24.7984 5856.89 25.4874 5857.32 25.9129L5861.84 30.4367C5862.33 30.9211 5863.11 30.9211 5863.6 30.4367L5875.17 18.8599C5875.6 18.4344 5875.6 17.7454 5875.17 17.3199C5874.75 16.8934 5874.05 16.8934 5873.63 17.3199L5862.72 28.2285Z" fill="black"/>
<path d="M6103.72 28.2285L6099.86 24.3729C6099.44 23.9463 6098.75 23.9463 6098.32 24.3729C6097.89 24.7984 6097.89 25.4874 6098.32 25.9129L6102.84 30.4367C6103.33 30.9211 6104.11 30.9211 6104.6 30.4367L6116.17 18.8599C6116.6 18.4344 6116.6 17.7454 6116.17 17.3199C6115.75 16.8934 6115.05 16.8934 6114.63 17.3199L6103.72 28.2285Z" fill="black"/>
<path fill-rule="evenodd" clip-rule="evenodd" d="M2205.06 25.4916C2205.06 33.3354 2198.67 39.6941 2190.8 39.6941C2182.93 39.6941 2176.54 33.3354 2176.54 25.4916C2176.54 17.6477 2182.93 11.2891 2190.8 11.2891C2198.67 11.2891 2205.06 17.6477 2205.06 25.4916Z" fill="url(#paint3_linear_1634_230)"/>
<path d="M45.543 25.2891H1992.54" stroke="#FFC700" stroke-width="4"/>
<path d="M38.1836 26.1836C38.1836 34.4679 31.4679 41.1836 23.1836 41.1836C14.8993 41.1836 8.18359 34.4679 8.18359 26.1836C8.18359 17.8993 14.8993 11.1836 23.1836 11.1836C31.4679 11.1836 38.1836 17.8993 38.1836 26.1836Z" fill="#FFC700"/>
<path d="M281.543 26.1836C281.543 34.4679 274.827 41.1836 266.543 41.1836C258.259 41.1836 251.543 34.4679 251.543 26.1836C251.543 17.8993 258.259 11.1836 266.543 11.1836C274.827 11.1836 281.543 17.8993 281.543 26.1836Z" fill="#FFC700"/>
<path d="M524.902 26.1836C524.902 34.4679 518.187 41.1836 509.902 41.1836C501.618 41.1836 494.902 34.4679 494.902 26.1836C494.902 17.8993 501.618 11.1836 509.902 11.1836C518.187 11.1836 524.902 17.8993 524.902 26.1836Z" fill="#FFC700"/>
<path d="M768.262 26.1836C768.262 34.4679 761.546 41.1836 753.262 41.1836C744.977 41.1836 738.262 34.4679 738.262 26.1836C738.262 17.8993 744.977 11.1836 753.262 11.1836C761.546 11.1836 768.262 17.8993 768.262 26.1836Z" fill="#FFC700"/>
<path d="M1011.62 26.1836C1011.62 34.4679 1004.91 41.1836 996.621 41.1836C988.337 41.1836 981.621 34.4679 981.621 26.1836C981.621 17.8993 988.337 11.1836 996.621 11.1836C1004.91 11.1836 1011.62 17.8993 1011.62 26.1836Z" fill="#FFC700"/>
<path d="M1254.98 26.1836C1254.98 34.4679 1248.26 41.1836 1239.98 41.1836C1231.7 41.1836 1224.98 34.4679 1224.98 26.1836C1224.98 17.8993 1231.7 11.1836 1239.98 11.1836C1248.26 11.1836 1254.98 17.8993 1254.98 26.1836Z" fill="#FFC700"/>
<path d="M1498.34 26.1836C1498.34 34.4679 1491.62 41.1836 1483.34 41.1836C1475.06 41.1836 1468.34 34.4679 1468.34 26.1836C1468.34 17.8993 1475.06 11.1836 1483.34 11.1836C1491.62 11.1836 1498.34 17.8993 1498.34 26.1836Z" fill="#FFC700"/>
<path d="M1741.7 26.1836C1741.7 34.4679 1734.98 41.1836 1726.7 41.1836C1718.41 41.1836 1711.7 34.4679 1711.7 26.1836C1711.7 17.8993 1718.41 11.1836 1726.7 11.1836C1734.98 11.1836 1741.7 17.8993 1741.7 26.1836Z" fill="#FFC700"/>
<path d="M1985.06 26.1836C1985.06 34.4679 1978.34 41.1836 1970.06 41.1836C1961.77 41.1836 1955.06 34.4679 1955.06 26.1836C1955.06 17.8993 1961.77 11.1836 1970.06 11.1836C1978.34 11.1836 1985.06 17.8993 1985.06 26.1836Z" fill="#FFC700"/>
<path d="M23.1837 47.8673C35.1592 47.8673 44.8673 38.1592 44.8673 26.1837C44.8673 14.2081 35.1592 4.5 23.1837 4.5C11.2081 4.5 1.5 14.2081 1.5 26.1837C1.5 38.1592 11.2081 47.8673 23.1837 47.8673Z" stroke="#FFC700" stroke-width="3"/>
<path d="M19.6577 30.4814L15.8022 26.6258C15.3756 26.1992 14.6832 26.1992 14.2566 26.6258V26.6258C13.8311 27.0513 13.8311 27.7403 14.2566 28.1658L18.7802 32.6896C19.2646 33.174 20.0508 33.174 20.5351 32.6896L32.1113 21.1129C32.5368 20.6874 32.5368 19.9984 32.1113 19.5729V19.5729C31.6847 19.1463 30.9923 19.1463 30.5657 19.5729L19.6577 30.4814Z" fill="black"/>
<path d="M263.017 30.4814L259.162 26.6258C258.735 26.1992 258.043 26.1992 257.616 26.6258V26.6258C257.191 27.0513 257.191 27.7403 257.616 28.1658L262.14 32.6896C262.624 33.174 263.41 33.174 263.894 32.6896L275.471 21.1129C275.896 20.6874 275.896 19.9984 275.471 19.5729V19.5729C275.044 19.1463 274.352 19.1463 273.925 19.5729L263.017 30.4814Z" fill="black"/>
<path d="M506.376 30.4814L502.521 26.6258C502.094 26.1992 501.402 26.1992 500.975 26.6258V26.6258C500.55 27.0513 500.55 27.7403 500.975 28.1658L505.499 32.6896C505.983 33.174 506.77 33.174 507.254 32.6896L518.83 21.1129C519.256 20.6874 519.256 19.9984 518.83 19.5729V19.5729C518.403 19.1463 517.711 19.1463 517.284 19.5729L506.376 30.4814Z" fill="black"/>
<path d="M749.736 30.4814L745.88 26.6258C745.454 26.1992 744.761 26.1992 744.335 26.6258V26.6258C743.909 27.0513 743.909 27.7403 744.335 28.1658L748.858 32.6896C749.343 33.174 750.129 33.174 750.613 32.6896L762.189 21.1129C762.615 20.6874 762.615 19.9984 762.189 19.5729V19.5729C761.763 19.1463 761.07 19.1463 760.644 19.5729L749.736 30.4814Z" fill="black"/>
<path d="M993.095 30.4814L989.24 26.6258C988.813 26.1992 988.121 26.1992 987.694 26.6258V26.6258C987.269 27.0513 987.269 27.7403 987.694 28.1658L992.218 32.6896C992.702 33.174 993.488 33.174 993.973 32.6896L1005.55 21.1129C1005.97 20.6874 1005.97 19.9984 1005.55 19.5729V19.5729C1005.12 19.1463 1004.43 19.1463 1004 19.5729L993.095 30.4814Z" fill="black"/>
<path d="M1236.45 30.4814L1232.6 26.6258C1232.17 26.1992 1231.48 26.1992 1231.05 26.6258V26.6258C1230.63 27.0513 1230.63 27.7403 1231.05 28.1658L1235.58 32.6896C1236.06 33.174 1236.85 33.174 1237.33 32.6896L1248.91 21.1129C1249.33 20.6874 1249.33 19.9984 1248.91 19.5729V19.5729C1248.48 19.1463 1247.79 19.1463 1247.36 19.5729L1236.45 30.4814Z" fill="black"/>
<path d="M1479.81 30.4814L1475.96 26.6258C1475.53 26.1992 1474.84 26.1992 1474.41 26.6258V26.6258C1473.99 27.0513 1473.99 27.7403 1474.41 28.1658L1478.94 32.6896C1479.42 33.174 1480.21 33.174 1480.69 32.6896L1492.27 21.1129C1492.69 20.6874 1492.69 19.9984 1492.27 19.5729V19.5729C1491.84 19.1463 1491.15 19.1463 1490.72 19.5729L1479.81 30.4814Z" fill="black"/>
<path d="M1723.17 30.4814L1719.32 26.6258C1718.89 26.1992 1718.2 26.1992 1717.77 26.6258V26.6258C1717.35 27.0513 1717.35 27.7403 1717.77 28.1658L1722.3 32.6896C1722.78 33.174 1723.57 33.174 1724.05 32.6896L1735.63 21.1129C1736.05 20.6874 1736.05 19.9984 1735.63 19.5729V19.5729C1735.2 19.1463 1734.51 19.1463 1734.08 19.5729L1723.17 30.4814Z" fill="black"/>
<path d="M2203.59 25.4916C2203.59 32.5213 2197.87 38.2294 2190.8 38.2294C2183.73 38.2294 2178.01 32.5213 2178.01 25.4916C2178.01 18.4619 2183.73 12.7537 2190.8 12.7537C2197.87 12.7537 2203.59 18.4619 2203.59 25.4916Z" stroke="#743DFE" stroke-width="2.92929"/>
<path d="M1992.54 25.2998H2438.54" stroke="#FFC700" stroke-width="4"/>
<path d="M1965.26 30.2285L1961.41 26.3729C1960.98 25.9463 1960.29 25.9463 1959.86 26.3729C1959.44 26.7984 1959.44 27.4874 1959.86 27.9129L1964.39 32.4367C1964.87 32.9211 1965.66 32.9211 1966.14 32.4367L1977.72 20.8599C1978.14 20.4344 1978.14 19.7454 1977.72 19.3199C1977.29 18.8934 1976.6 18.8934 1976.17 19.3199L1965.26 30.2285Z" fill="black"/>
<path d="M2205.54 25C2205.54 33.2843 2198.83 40 2190.54 40C2182.26 40 2175.54 33.2843 2175.54 25C2175.54 16.7157 2182.26 10 2190.54 10C2198.83 10 2205.54 16.7157 2205.54 25Z" fill="#FFC700"/>
<path d="M2187.26 30.2285L2183.41 26.3729C2182.98 25.9463 2182.29 25.9463 2181.86 26.3729V26.3729C2181.44 26.7984 2181.44 27.4874 2181.86 27.9129L2186.39 32.4367C2186.87 32.9211 2187.66 32.9211 2188.14 32.4367L2199.72 20.8599C2200.14 20.4344 2200.14 19.7454 2199.72 19.3199V19.3199C2199.29 18.8934 2198.6 18.8934 2198.17 19.3199L2187.26 30.2285Z" fill="black"/>
<defs>
<linearGradient id="paint0_linear_1634_230" x1="4930.6" y1="21.7144" x2="8747.94" y2="-884.722" gradientUnits="userSpaceOnUse">
<stop stop-color="#FF54CF"/>
<stop offset="0.526042" stop-color="#6F3CFF"/>
<stop offset="1" stop-color="#FF54CF"/>
</linearGradient>
<linearGradient id="paint1_linear_1634_230" x1="4192.6" y1="22.4251" x2="8009.94" y2="-884.011" gradientUnits="userSpaceOnUse">
<stop stop-color="#FF54CF"/>
<stop offset="0.526042" stop-color="#6F3CFF"/>
<stop offset="1" stop-color="#FF54CF"/>
</linearGradient>
<linearGradient id="paint2_linear_1634_230" x1="3453.6" y1="23.4251" x2="7270.94" y2="-883.011" gradientUnits="userSpaceOnUse">
<stop stop-color="#FF54CF"/>
<stop offset="0.526042" stop-color="#6F3CFF"/>
<stop offset="1" stop-color="#FF54CF"/>
</linearGradient>
<linearGradient id="paint3_linear_1634_230" x1="2176.32" y1="6.40669" x2="2216.51" y2="6.39885" gradientUnits="userSpaceOnUse">
<stop stop-color="#FF54CF"/>
<stop offset="0.526042" stop-color="#6F3CFF"/>
<stop offset="1" stop-color="#FF54CF"/>
</linearGradient>
</defs>
</svg>
