<svg width="174" height="52" viewBox="0 0 174 52" fill="none" xmlns="http://www.w3.org/2000/svg">
<path d="M167.502 51.6225H6.44241C2.89912 51.6225 0 48.7188 0 45.1697V6.45285C0 2.90376 2.89906 0 6.44241 0H167.502C171.046 0 173.945 2.90376 173.945 6.45285V45.1697C173.945 48.7188 171.046 51.6225 167.502 51.6225Z" fill="black"/>
<path d="M167.502 0H6.44241C2.89912 0 0 2.90376 0 6.45285V45.1697C0 48.7188 2.89906 51.6225 6.44241 51.6225H167.502C171.046 51.6225 173.945 48.7188 173.945 45.1697V6.45285C173.945 2.90376 171.046 0 167.502 0ZM167.502 1.03242C170.486 1.03242 172.914 3.4644 172.914 6.45285V45.1697C172.914 48.1587 170.486 50.5906 167.502 50.5906H6.44241C3.45883 50.5906 1.03079 48.1587 1.03079 45.1697V6.45285C1.03079 3.4644 3.45877 1.03248 6.44241 1.03248H167.502" fill="#A6A6A6"/>
<path d="M61.0978 13.2199C61.0978 14.3011 60.7781 15.1622 60.1378 15.8045C59.4106 16.5682 58.4628 16.9504 57.2976 16.9504C56.1818 16.9504 55.233 16.5632 54.4529 15.7878C53.6713 15.013 53.2812 14.0522 53.2812 12.9058C53.2812 11.7588 53.6713 10.7986 54.4529 10.0231C55.233 9.24833 56.1818 8.8606 57.2976 8.8606C57.8513 8.8606 58.3813 8.96906 58.8846 9.18534C59.3879 9.40215 59.7916 9.68995 60.0936 10.0504L59.414 10.7314C58.9022 10.1189 58.1976 9.81291 57.2976 9.81291C56.4838 9.81291 55.7802 10.0993 55.1863 10.6725C54.5923 11.2462 54.2954 11.9903 54.2954 12.9058C54.2954 13.8213 54.5923 14.5653 55.1863 15.1391C55.7802 15.7123 56.4838 15.9986 57.2976 15.9986C58.1609 15.9986 58.8806 15.7107 59.4569 15.134C59.8309 14.7584 60.0472 14.2362 60.1051 13.5656H57.2975V12.6355H61.0438C61.08 12.8378 61.0976 13.0319 61.0976 13.2199" fill="white"/>
<path d="M61.0976 13.2198H60.9687C60.9677 14.2764 60.6596 15.0971 60.0465 15.7131L60.0452 15.7142L60.0446 15.7152C59.3405 16.4527 58.4354 16.8197 57.2974 16.8213C56.2114 16.8197 55.3023 16.4487 54.5433 15.6965C53.7859 14.9428 53.4114 14.0228 53.4099 12.9057C53.4114 11.788 53.7859 10.8685 54.5433 10.1154C55.3023 9.36267 56.2114 8.99112 57.2974 8.98955C57.8345 8.98955 58.3459 9.09453 58.8335 9.30369C59.3217 9.51446 59.7074 9.79066 59.9947 10.1336L60.0934 10.0503L60.0023 9.95904L59.3228 10.6406L59.4138 10.7313L59.5131 10.6487C58.9774 10.0059 58.2256 9.68185 57.2974 9.68377C56.4535 9.68272 55.7111 9.98479 55.0969 10.5797C54.4769 11.1765 54.1654 11.9625 54.1664 12.9057C54.1654 13.8489 54.4769 14.6348 55.0969 15.2317C55.7111 15.8266 56.4535 16.1286 57.2974 16.1276C58.1893 16.1291 58.9494 15.8261 59.5478 15.2252C59.9474 14.8238 60.1739 14.2679 60.2333 13.5766L60.2453 13.4365H57.4263V12.7645H61.0437V12.6354L60.9168 12.6581C60.952 12.8538 60.9687 13.0398 60.9687 13.2198H61.2264C61.2264 13.0236 61.2082 12.822 61.1705 12.6124L61.1514 12.5064H57.1686V13.6946H60.1049V13.5655L59.9766 13.5545C59.9198 14.2038 59.7134 14.6928 59.3656 15.0428C58.812 15.5952 58.1325 15.8679 57.2974 15.8695C56.5138 15.8684 55.849 15.5982 55.2757 15.0462C54.708 14.4962 54.4256 13.794 54.4241 12.9057C54.4256 12.0174 54.708 11.3152 55.2757 10.7651C55.849 10.2131 56.5138 9.94291 57.2974 9.94187C58.1687 9.94396 58.8266 10.2323 59.3154 10.8146L59.406 10.9224L60.1846 10.1416L60.2681 10.0579L60.192 9.96756C59.8755 9.58957 59.4537 9.28953 58.9353 9.06681C58.4159 8.84339 57.8678 8.73145 57.2974 8.73145C56.152 8.73046 55.1635 9.13374 54.3617 9.93184C53.5569 10.7284 53.1512 11.7296 53.1523 12.9057C53.1512 14.0812 53.5569 15.083 54.3622 15.88C55.1635 16.6776 56.152 17.0804 57.2974 17.0794C58.4904 17.0804 59.4799 16.6836 60.2308 15.8936L60.1376 15.8044L60.2288 15.8957C60.8962 15.2277 61.2272 14.3253 61.2264 13.2198H61.0976ZM67.0366 9.98526H63.5159V12.4404H66.6909V13.3709H63.5159V15.8261H67.0366V16.7773H62.5234V9.03398H67.0366V9.98526Z" fill="white"/>
<path d="M67.0365 9.98511V9.85606H63.387V12.5693H66.562V13.2413L63.387 13.2417V15.955H66.9077V16.6482H62.6522V9.16289H66.9077V9.98511H67.0365H67.1653V8.90479H62.3945V16.9063H67.1653V15.6969H63.6447V13.4998H66.8197V12.3112H63.6447V10.1142H67.1653V9.98511H67.0365ZM71.2256 16.7773H70.2316V9.98505H68.0723V9.03378H73.3849V9.98505H71.2256V16.7771" fill="white"/>
<path d="M71.226 16.7773V16.6482H70.3607V9.85606H68.2015V9.16295H73.2563V9.85606H71.0971V16.7772H71.226H71.3548V10.1142H73.514V8.90479H67.9438V10.1141H70.103V16.9062H71.3548V16.7771H71.226M77.229 16.7773V9.03378H78.222V16.7771H77.229" fill="white"/>
<path d="M77.2289 16.7773H77.3578V9.16289H78.0931V16.6482H77.2289V16.7772V16.9063H78.3508V8.90479H77.1001V16.9063H77.2289V16.7772M82.6284 16.7773H81.6344V9.98505H79.4752V9.03378H84.7877V9.98505H82.6284V16.7771" fill="white"/>
<path d="M82.6282 16.7775V16.6484H81.763V9.8563H79.6039V9.16319H84.6586V9.8563H82.4994V16.7774H82.6282H82.7571V10.1144H84.9163V8.90502H79.3462V10.1143H81.5053V16.9064H82.7571V16.7774H82.6282M89.9092 15.1285C90.4813 15.7087 91.1815 15.9985 92.0095 15.9985C92.8375 15.9985 93.538 15.7087 94.1093 15.1285C94.6821 14.5483 94.969 13.8066 94.969 12.9058C94.969 12.005 94.6821 11.2633 94.1093 10.683C93.538 10.1028 92.8375 9.81291 92.0095 9.81291C91.1815 9.81291 90.4813 10.1028 89.9092 10.683C89.3378 11.2633 89.051 12.0049 89.051 12.9058C89.051 13.8066 89.3378 14.5483 89.9092 15.1285ZM94.8441 15.7768C94.0841 16.5596 93.1389 16.9504 92.0095 16.9504C90.879 16.9504 89.9342 16.5596 89.1759 15.7768C88.4153 14.9948 88.0368 14.0376 88.0368 12.9058C88.0368 11.7739 88.4153 10.8166 89.1759 10.0348C89.9343 9.25175 90.879 8.8606 92.0095 8.8606C93.1329 8.8606 94.0755 9.25384 94.8391 10.0398C95.6016 10.8257 95.9831 11.781 95.9831 12.9058C95.9831 14.0376 95.6025 14.9948 94.8441 15.7768Z" fill="white"/>
<path d="M89.9094 15.1284L89.8177 15.2192C90.4112 15.8226 91.1516 16.1291 92.0097 16.1276C92.8673 16.1291 93.6087 15.8226 94.2011 15.2192C94.7985 14.6151 95.0989 13.8337 95.098 12.9057C95.0989 11.9777 94.7985 11.1962 94.2011 10.5922C93.6087 9.98874 92.8673 9.68226 92.0097 9.68377C91.1516 9.68226 90.4112 9.98874 89.8177 10.5922C89.2218 11.1962 88.9208 11.9777 88.9224 12.9057C88.9208 13.8337 89.2218 14.6151 89.8177 15.2192L89.9094 15.1284L90.001 15.0377C89.4544 14.4806 89.1811 13.7798 89.1801 12.9057C89.1811 12.0316 89.4544 11.3308 90.0009 10.7737C90.5525 10.2167 91.2114 9.94344 92.0097 9.94193C92.8074 9.94344 93.4677 10.2167 94.0179 10.7737C94.5655 11.3308 94.8388 12.0316 94.8398 12.9057C94.8388 13.7797 94.5655 14.4806 94.0179 15.0377C93.4677 15.5947 92.8074 15.8679 92.0097 15.8694C91.2114 15.8679 90.5526 15.5947 90.001 15.0377L89.9094 15.1284ZM94.8443 15.7767L94.7522 15.687C94.0134 16.4452 93.1099 16.8197 92.0097 16.8213C90.9089 16.8197 90.0055 16.4452 89.268 15.687C88.5308 14.9262 88.1669 14.0087 88.1659 12.9057C88.1669 11.8026 88.5308 10.8851 89.268 10.1244C90.0055 9.36615 90.9089 8.99112 92.0097 8.98961C93.1028 8.99112 94.0042 9.36772 94.7472 10.1299C95.487 10.8942 95.853 11.8102 95.8545 12.9057C95.853 14.0087 95.4881 14.9262 94.7522 15.687L94.8443 15.7767L94.937 15.8663C95.718 15.0628 96.1131 14.0662 96.1122 12.9057C96.1131 11.7518 95.7165 10.7571 94.9318 9.95005C94.1467 9.13978 93.1633 8.73006 92.0097 8.73145C90.8501 8.73006 89.8636 9.13786 89.0834 9.945V9.94442C88.3008 10.7485 87.9072 11.7452 87.9082 12.9057C87.9072 14.0662 88.3008 15.0628 89.0834 15.8669L89.0869 15.8705L89.0834 15.8663C89.8636 16.6735 90.8501 17.0804 92.0097 17.0794C93.1688 17.0804 94.1553 16.6735 94.937 15.8663L94.8443 15.7767ZM97.3775 16.7774V9.03392H98.5865L102.344 15.0577H102.386L102.344 13.5655V9.03392H103.338V16.7773H102.301L98.37 10.4616H98.3272L98.37 11.9543V16.7773H97.3775" fill="white"/>
<path d="M97.3772 16.7773H97.5061V9.16289H98.5147L102.272 15.1867H102.519L102.472 13.5635V9.16295H103.209V16.6482H102.372L98.4413 10.3324H98.1946L98.2409 11.9563V16.6482H97.3772V16.7772V16.9063H98.4986V11.9522L98.4558 10.458L98.3269 10.4615V10.5905H98.3698V10.4615L98.2605 10.5301L102.229 16.9063H103.466V8.90479H102.215V13.5669L102.257 15.0611L102.386 15.0576V14.9286H102.343V15.0576L102.453 14.9892L98.6576 8.90479H97.2484V16.9063H97.3772V16.7772M137.785 38.7168H140.189V22.5832H137.785L137.785 38.7168ZM159.44 28.3949L156.684 35.3896H156.602L153.741 28.3949H151.151L155.441 38.1713L152.995 43.6093H155.504L162.114 28.3949L159.44 28.3949ZM145.805 36.8844C145.017 36.8844 143.919 36.4901 143.919 35.5141C143.919 34.2689 145.288 33.7915 146.468 33.7915C147.526 33.7915 148.022 34.0198 148.665 34.3315C148.478 35.8257 147.193 36.8844 145.805 36.8844ZM146.095 28.0419C144.355 28.0419 142.552 28.8102 141.806 30.5122L143.94 31.4045C144.396 30.5122 145.245 30.2213 146.137 30.2213C147.38 30.2213 148.644 30.9689 148.665 32.2973V32.4632C148.229 32.2141 147.298 31.8405 146.157 31.8405C143.857 31.8405 141.515 33.1064 141.515 35.4727C141.515 37.6315 143.401 39.0223 145.514 39.0223C147.131 39.0223 148.022 38.2958 148.582 37.4449H148.665V38.6901H150.985V32.5044C150.985 29.6406 148.851 28.0419 146.095 28.0419ZM131.237 30.3588H127.817V24.8287H131.237C133.034 24.8287 134.055 26.3193 134.055 27.5937C134.055 28.844 133.034 30.3588 131.237 30.3588ZM131.175 22.5832H125.414V38.7168H127.817V32.6043H131.175C133.839 32.6043 136.459 30.6719 136.459 27.5937C136.459 24.5156 133.839 22.5832 131.175 22.5832ZM99.7604 36.8873C98.0994 36.8873 96.7088 35.4944 96.7088 33.5813C96.7088 31.648 98.0994 30.2339 99.7604 30.2339C101.4 30.2339 102.687 31.648 102.687 33.5813C102.687 35.4944 101.4 36.8873 99.7604 36.8873ZM102.521 29.2983H102.438C101.898 28.6539 100.86 28.0717 99.5526 28.0717C96.8125 28.0717 94.301 30.4834 94.301 33.5813C94.301 36.6585 96.8124 39.0495 99.5526 39.0495C100.86 39.0495 101.898 38.4672 102.438 37.8023H102.521V38.5923C102.521 40.6925 101.4 41.8152 99.5943 41.8152C98.1205 41.8152 97.2071 40.7545 96.8331 39.8606L94.7369 40.7338C95.3389 42.1892 96.9373 43.9774 99.5943 43.9774C102.417 43.9774 104.805 42.3137 104.805 38.2596V28.4044H102.521V29.2983ZM106.465 38.7168H108.873V22.5826H106.465V38.7168ZM112.423 33.3943C112.36 31.2733 114.063 30.1925 115.287 30.1925C116.243 30.1925 117.052 30.6704 117.321 31.3572L112.423 33.3943ZM119.895 31.5647C119.439 30.3377 118.048 28.0717 115.204 28.0717C112.381 28.0717 110.036 30.2964 110.036 33.5606C110.036 36.6379 112.36 39.0495 115.474 39.0495C117.986 39.0495 119.439 37.5109 120.041 36.617L118.173 35.3693C117.55 36.2843 116.699 36.8873 115.474 36.8873C114.249 36.8873 113.378 36.3258 112.817 35.2241L120.144 32.1884L119.895 31.5647ZM61.5168 29.7559V32.0845H67.0798C66.9137 33.3943 66.4778 34.3506 65.8134 35.016C65.0041 35.8271 63.7379 36.721 61.5167 36.721C58.0916 36.721 55.414 33.9558 55.414 30.5252C55.414 27.0947 58.0916 24.3291 61.5168 24.3291C63.3643 24.3291 64.7132 25.057 65.7097 25.9926L67.3496 24.3502C65.959 23.0193 64.1113 22.0005 61.5168 22.0005C56.8253 22.0005 52.8813 25.8263 52.8813 30.5252C52.8813 35.2241 56.8253 39.0495 61.5168 39.0495C64.0494 39.0495 65.959 38.2183 67.4533 36.6585C68.9894 35.1199 69.4671 32.9577 69.4671 31.2114C69.4671 30.6704 69.4257 30.1718 69.3422 29.7559H61.5168ZM75.7917 36.8873C74.1307 36.8873 72.6983 35.515 72.6983 33.5606C72.6983 31.5854 74.1307 30.2339 75.7917 30.2339C77.452 30.2339 78.8844 31.5854 78.8844 33.5606C78.8844 35.5151 77.452 36.8873 75.7917 36.8873ZM75.7917 28.0717C72.7607 28.0717 70.2904 30.3795 70.2904 33.5606C70.2904 36.721 72.7607 39.0495 75.7917 39.0495C78.8221 39.0495 81.2923 36.721 81.2923 33.5606C81.2923 30.3795 78.8221 28.0717 75.7917 28.0717ZM87.7915 36.8873C86.1312 36.8873 84.6987 35.515 84.6987 33.5606C84.6987 31.5854 86.1312 30.2339 87.7916 30.2339C89.452 30.2339 90.8844 31.5854 90.8844 33.5606C90.8844 35.5151 89.452 36.8873 87.7915 36.8873ZM87.7915 28.0717C84.7607 28.0717 82.2909 30.3795 82.2909 33.5606C82.2909 36.721 84.7607 39.0495 87.7916 39.0495C90.8221 39.0495 93.2924 36.721 93.2924 33.5606C93.2924 30.3795 90.822 28.0717 87.7915 28.0717Z" fill="white"/>
<path d="M13.5401 9.82275C13.1077 10.2135 12.8496 10.8653 12.8496 11.7304V11.5348V40.0835V39.8955C12.8496 40.6944 13.071 41.3114 13.4459 41.7088L13.5416 41.8006V41.801C13.8451 42.0753 14.2342 42.2209 14.6802 42.2204C15.1159 42.2204 15.6062 42.0813 16.1237 41.7875L34.8262 31.1438L41.2504 27.4874C42.0663 27.0231 42.5243 26.4242 42.6009 25.8142V25.8117C42.5243 25.2002 42.0663 24.6018 41.2504 24.1375L34.8257 20.4815L16.1237 9.83783C15.6052 9.54348 15.1145 9.40381 14.6776 9.40381C14.2322 9.40381 13.8436 9.54898 13.5402 9.82275H13.5401Z" fill="#00C1FF"/>
<path d="M13.5417 41.8008L13.4459 41.709C13.071 41.3117 12.8496 40.6946 12.8496 39.8957V40.0837V11.5421V11.7306C12.8496 10.8655 13.1077 10.2137 13.5401 9.82297L29.5041 25.8124L13.5417 41.8008Z" fill="url(#paint0_linear_212_4902)"/>
<path d="M34.826 31.1438L29.5039 25.8122L34.8255 20.4815L41.2502 24.1374C42.0661 24.6018 42.5241 25.2002 42.6007 25.8117V25.8141C42.5241 26.4242 42.0661 27.0232 41.2502 27.4874L34.826 31.1437" fill="url(#paint1_linear_212_4902)"/>
<path d="M14.6799 42.2207C14.234 42.2211 13.8449 42.0754 13.5415 41.8012V41.8008L29.504 25.8124L34.826 31.144L16.1234 41.7877C15.606 42.0816 15.1157 42.2207 14.6799 42.2207Z" fill="url(#paint2_linear_212_4902)"/>
<path d="M29.5041 25.8125L13.54 9.82307C13.8435 9.5493 14.2321 9.40413 14.6775 9.40413C15.1144 9.40413 15.6051 9.54374 16.1236 9.83815L34.8257 20.4818L29.5041 25.8125" fill="url(#paint3_linear_212_4902)"/>
<path d="M14.6805 42.4097C14.2346 42.4097 13.8449 42.264 13.5414 41.9897L13.5409 41.9902C13.5397 41.9889 13.5383 41.9878 13.5369 41.9867L13.4539 41.9055C13.4513 41.903 13.4489 41.9 13.4458 41.8971L13.5415 41.8012C13.845 42.0754 14.234 42.2211 14.6801 42.2206C15.1158 42.2206 15.606 42.0815 16.1235 41.7876L34.826 31.144L34.9458 31.264L34.8245 31.333L16.1234 41.9761C15.6519 42.2438 15.2033 42.3835 14.7982 42.4067C14.759 42.4086 14.7197 42.4097 14.6805 42.4097Z" fill="url(#paint4_linear_212_4902)"/>
<path d="M13.4459 41.897C13.071 41.4997 12.8496 40.8831 12.8496 40.0836V39.8956C12.8496 40.6946 13.071 41.3116 13.4459 41.7089L13.5416 41.8007L13.4459 41.897Z" fill="url(#paint5_linear_212_4902)"/>
<path d="M34.946 31.2639L34.8262 31.1438L41.2504 27.4874C42.0663 27.0232 42.5243 26.4243 42.6009 25.8142C42.6009 26.0381 42.551 26.2619 42.4519 26.4798C42.252 26.9188 41.8515 27.3337 41.2504 27.676L34.946 31.2639" fill="url(#paint6_linear_212_4902)"/>
<path d="M42.6009 25.8118C42.5243 25.2003 42.0663 24.6019 41.2505 24.1375L34.8257 20.4816L34.9455 20.3615H34.946L41.2505 23.9495C42.1499 24.4617 42.6004 25.1366 42.6009 25.8118Z" fill="url(#paint7_linear_212_4902)"/>
<path d="M12.8496 11.7305V11.5333C12.8496 11.4622 12.8515 11.3926 12.8552 11.3251V11.322C12.8552 11.3211 12.8552 11.3201 12.8555 11.3191V11.3115C12.8943 10.6233 13.1077 10.0865 13.4459 9.72804L13.5401 9.82276C13.1077 10.2136 12.8496 10.8653 12.8496 11.7305Z" fill="url(#paint8_linear_212_4902)"/>
<path d="M34.8255 20.4817L16.1235 9.83792C15.605 9.54357 15.1144 9.40396 14.6775 9.40396C14.232 9.40396 13.8434 9.54914 13.54 9.8229L13.4458 9.72813C13.4752 9.69693 13.5058 9.66685 13.5374 9.63794C13.5384 9.63689 13.54 9.63585 13.541 9.63486C13.842 9.36318 14.2265 9.21801 14.6679 9.2154H14.6775C15.1144 9.2154 15.605 9.35506 16.1235 9.64954L34.9458 20.3612L34.9453 20.3616L34.8255 20.4817Z" fill="url(#paint9_linear_212_4902)"/>
<defs>
<linearGradient id="paint0_linear_212_4902" x1="23.0516" y1="11.2405" x2="9.29418" y2="25.02" gradientUnits="userSpaceOnUse">
<stop stop-color="#00A0FF"/>
<stop offset="0.00657" stop-color="#00A1FF"/>
<stop offset="0.2601" stop-color="#00BEFF"/>
<stop offset="0.5122" stop-color="#00D2FF"/>
<stop offset="0.7604" stop-color="#00DFFF"/>
<stop offset="1" stop-color="#00E3FF"/>
</linearGradient>
<linearGradient id="paint1_linear_212_4902" x1="43.5947" y1="25.7201" x2="12.4174" y2="25.7201" gradientUnits="userSpaceOnUse">
<stop stop-color="#FFE000"/>
<stop offset="0.4087" stop-color="#FFBD00"/>
<stop offset="0.7754" stop-color="#FFA500"/>
<stop offset="1" stop-color="#FF9C00"/>
</linearGradient>
<linearGradient id="paint2_linear_212_4902" x1="32.0005" y1="30.8814" x2="8.68751" y2="54.0614" gradientUnits="userSpaceOnUse">
<stop stop-color="#FF3A44"/>
<stop offset="1" stop-color="#C31162"/>
</linearGradient>
<linearGradient id="paint3_linear_212_4902" x1="9.42565" y1="7.45256" x2="19.8157" y2="17.7992" gradientUnits="userSpaceOnUse">
<stop stop-color="#32A071"/>
<stop offset="0.0685" stop-color="#2DA771"/>
<stop offset="0.4762" stop-color="#15CF74"/>
<stop offset="0.8009" stop-color="#06E775"/>
<stop offset="1" stop-color="#00F076"/>
</linearGradient>
<linearGradient id="paint4_linear_212_4902" x1="31.9889" y1="34.5797" x2="13.3187" y2="53.2801" gradientUnits="userSpaceOnUse">
<stop stop-color="#CC2E36"/>
<stop offset="1" stop-color="#9C0E4E"/>
</linearGradient>
<linearGradient id="paint5_linear_212_4902" x1="14.9763" y1="11.2403" x2="2.85617" y2="23.3801" gradientUnits="userSpaceOnUse">
<stop stop-color="#008DE0"/>
<stop offset="0.00657" stop-color="#008DE0"/>
<stop offset="0.2601" stop-color="#00A7E0"/>
<stop offset="0.5122" stop-color="#00B8E0"/>
<stop offset="0.7604" stop-color="#00C4E0"/>
<stop offset="1" stop-color="#00C7E0"/>
</linearGradient>
<linearGradient id="paint6_linear_212_4902" x1="43.5949" y1="25.813" x2="12.4175" y2="25.813" gradientUnits="userSpaceOnUse">
<stop stop-color="#E0C500"/>
<stop offset="0.4087" stop-color="#E0A600"/>
<stop offset="0.7754" stop-color="#E09100"/>
<stop offset="1" stop-color="#E08900"/>
</linearGradient>
<linearGradient id="paint7_linear_212_4902" x1="43.595" y1="25.813" x2="12.4177" y2="25.813" gradientUnits="userSpaceOnUse">
<stop stop-color="#FFE840"/>
<stop offset="0.4087" stop-color="#FFCE40"/>
<stop offset="0.7754" stop-color="#FFBC40"/>
<stop offset="1" stop-color="#FFB540"/>
</linearGradient>
<linearGradient id="paint8_linear_212_4902" x1="14.9631" y1="11.2622" x2="3.28932" y2="22.4483" gradientUnits="userSpaceOnUse">
<stop stop-color="#40B8FF"/>
<stop offset="0.00657" stop-color="#40B9FF"/>
<stop offset="0.2601" stop-color="#40CEFF"/>
<stop offset="0.5122" stop-color="#40DDFF"/>
<stop offset="0.7604" stop-color="#40E7FF"/>
<stop offset="1" stop-color="#40EAFF"/>
</linearGradient>
<linearGradient id="paint9_linear_212_4902" x1="9.40228" y1="10.8339" x2="17.7394" y2="19.1845" gradientUnits="userSpaceOnUse">
<stop stop-color="#65B895"/>
<stop offset="0.0685" stop-color="#62BD95"/>
<stop offset="0.4762" stop-color="#50DB97"/>
<stop offset="0.8009" stop-color="#44ED98"/>
<stop offset="1" stop-color="#40F498"/>
</linearGradient>
</defs>
</svg>
