<svg width="175" height="52" viewBox="0 0 175 52" fill="none" xmlns="http://www.w3.org/2000/svg">
<path d="M173.07 45.5281C173.07 46.1779 172.942 46.8212 172.694 47.4214C172.445 48.0216 172.08 48.5669 171.62 49.0261C171.16 49.4852 170.615 49.8493 170.014 50.0975C169.413 50.3456 168.77 50.473 168.12 50.4724H6.10656C4.79344 50.4737 3.53353 49.9536 2.60392 49.0264C1.67432 48.0993 1.15113 46.8409 1.14941 45.5281V6.0996C1.15112 4.78623 1.67411 3.52722 2.60353 2.59901C3.53296 1.6708 4.79285 1.14927 6.10656 1.14893H168.118C168.769 1.14893 169.413 1.27699 170.013 1.5258C170.614 1.77461 171.16 2.13929 171.62 2.59902C172.079 3.05875 172.444 3.60452 172.693 4.20516C172.941 4.80579 173.069 5.44953 173.069 6.0996L173.07 45.5281Z" fill="white"/>
<path d="M168.12 51.6226H6.10637C4.48876 51.6222 2.93734 50.9803 1.79254 49.8378C0.647743 48.6952 0.00307788 47.1453 0 45.5281L0 6.10088C0.00239303 4.48289 0.646633 2.93191 1.79139 1.78818C2.93615 0.644451 4.48795 0.00136565 6.10637 0L168.118 0C169.737 0.00204707 171.288 0.645351 172.433 1.78893C173.577 2.93252 174.222 4.4831 174.225 6.10088V45.5281C174.227 48.8897 171.483 51.6226 168.12 51.6226Z" fill="#A6A6A6"/>
<path d="M173.07 45.5281C173.07 46.1779 172.942 46.8212 172.694 47.4214C172.445 48.0216 172.08 48.5669 171.62 49.0261C171.16 49.4852 170.615 49.8493 170.014 50.0975C169.413 50.3456 168.77 50.473 168.12 50.4724H6.10656C4.79344 50.4737 3.53353 49.9536 2.60392 49.0264C1.67432 48.0993 1.15113 46.8409 1.14941 45.5281V6.0996C1.15112 4.78623 1.67411 3.52722 2.60353 2.59901C3.53296 1.6708 4.79285 1.14927 6.10656 1.14893H168.118C168.769 1.14893 169.413 1.27699 170.013 1.5258C170.614 1.77461 171.16 2.13929 171.62 2.59902C172.079 3.05875 172.444 3.60452 172.693 4.20516C172.941 4.80579 173.069 5.44953 173.069 6.0996L173.07 45.5281Z" fill="black"/>
<path d="M168.12 0H81.3403L115.33 51.6226H168.12C169.737 51.6212 171.289 50.9785 172.434 49.8353C173.578 48.6921 174.223 47.1418 174.226 45.5243V6.10088C174.223 4.483 173.579 2.93221 172.434 1.78856C171.289 0.644901 169.738 0.00170649 168.12 0Z" fill="url(#paint0_linear_216_3962)"/>
<path d="M58.3789 17.4159C57.6132 17.4159 56.9508 17.3784 56.3994 17.3152V9.0094C57.1706 8.89031 57.9498 8.83161 58.7301 8.83384C61.8873 8.83384 63.3412 10.3868 63.3412 12.9183C63.3412 15.8384 61.6239 17.4159 58.3789 17.4159ZM58.8412 9.89885C58.4151 9.89885 58.0522 9.92467 57.7514 9.98663V16.3005C57.9141 16.3263 58.2265 16.338 58.6656 16.338C60.7342 16.338 61.9118 15.1606 61.9118 12.9557C61.9118 10.9897 60.8465 9.89885 58.8412 9.89885ZM67.8723 17.4791C66.0929 17.4791 64.9398 16.1508 64.9398 14.3474C64.9398 12.4678 66.1174 11.1278 67.973 11.1278C69.7265 11.1278 70.9054 12.3929 70.9054 14.248C70.9054 16.1508 69.6904 17.4791 67.8723 17.4791ZM67.9239 12.1166C66.9464 12.1166 66.3202 13.0306 66.3202 14.3086C66.3202 15.5621 66.9593 16.4761 67.911 16.4761C68.8627 16.4761 69.5018 15.4989 69.5018 14.2828C69.5018 13.0435 68.8756 12.1166 67.9239 12.1166ZM81.0522 11.253L79.1476 17.341H77.9067L77.1177 14.6972C76.9215 14.0505 76.7582 13.3943 76.6283 12.7311H76.6025C76.5031 13.3947 76.3145 14.0595 76.1144 14.6972L75.2751 17.341H74.0212L72.229 11.253H73.6197L74.3092 14.1473C74.4719 14.8366 74.6088 15.4872 74.7224 16.1017H74.7482C74.8477 15.5892 75.0104 14.9489 75.2492 14.1602L76.1144 11.2543H77.2171L78.0448 14.0982C78.245 14.7876 78.4077 15.464 78.5342 16.103H78.5704C78.6582 15.4769 78.7963 14.8121 78.9836 14.0982L79.7235 11.2543L81.0522 11.253ZM88.0637 17.341H86.7105V13.8452C86.7105 12.7686 86.2973 12.229 85.4825 12.229C84.6806 12.229 84.1292 12.9183 84.1292 13.72V17.341H82.776V12.9932C82.776 12.4549 82.7631 11.8778 82.7256 11.2517H83.9162L83.9795 12.1915H84.0169C84.381 11.5409 85.1196 11.1278 85.9473 11.1278C87.2257 11.1278 88.065 12.105 88.065 13.6954L88.0637 17.341ZM91.7954 17.341H90.4409V8.45947H91.7954V17.341ZM96.7294 17.4791C94.9513 17.4791 93.7969 16.1508 93.7969 14.3474C93.7969 12.4678 94.9745 11.1278 96.8288 11.1278C98.5836 11.1278 99.7612 12.3929 99.7612 14.248C99.7625 16.1508 98.5462 17.4791 96.7294 17.4791ZM96.7797 12.1166C95.8022 12.1166 95.176 13.0306 95.176 14.3086C95.176 15.5621 95.8164 16.4761 96.7655 16.4761C97.7185 16.4761 98.3563 15.4989 98.3563 14.2828C98.3576 13.0435 97.7327 12.1166 96.7797 12.1166ZM105.097 17.341L104.999 16.64H104.962C104.549 17.2042 103.946 17.4791 103.182 17.4791C102.091 17.4791 101.316 16.7149 101.316 15.6873C101.316 14.1847 102.619 13.4076 104.875 13.4076V13.2953C104.875 12.4936 104.45 12.0921 103.61 12.0921C103.01 12.0921 102.483 12.2432 102.02 12.5439L101.745 11.6545C102.308 11.3034 103.01 11.1278 103.835 11.1278C105.426 11.1278 106.229 11.9669 106.229 13.6464V15.8887C106.229 16.5032 106.256 16.9795 106.317 17.3423L105.097 17.341ZM104.911 14.3086C103.408 14.3086 102.654 14.6727 102.654 15.5363C102.654 16.1753 103.042 16.4877 103.582 16.4877C104.27 16.4877 104.911 15.9623 104.911 15.2484V14.3086ZM112.8 17.341L112.737 16.3638H112.7C112.311 17.1022 111.658 17.4791 110.745 17.4791C109.277 17.4791 108.189 16.1882 108.189 14.3719C108.189 12.4678 109.317 11.1265 110.856 11.1265C111.671 11.1265 112.248 11.4015 112.573 11.954H112.6V8.45947H113.955V15.7002C113.955 16.2889 113.969 16.8401 114.005 17.341H112.8ZM112.6 13.7587C112.6 12.9067 112.036 12.1799 111.175 12.1799C110.171 12.1799 109.558 13.0693 109.558 14.3215C109.558 15.5492 110.195 16.3896 111.148 16.3896C111.999 16.3896 112.6 15.6499 112.6 14.7734V13.7587Z" fill="white"/>
<path d="M42.1014 21.4463H41.288V17.7384C41.288 17.7151 41.2841 17.692 41.2808 17.6684C41.2796 17.5213 41.2299 17.3765 41.1232 17.2621L34.592 10.2146C34.59 10.2126 34.5881 10.212 34.5868 10.2102C34.5479 10.169 34.5025 10.1348 34.4545 10.1054C34.4402 10.0962 34.4259 10.0887 34.411 10.0809C34.3695 10.0596 34.3253 10.0417 34.28 10.0288C34.2677 10.0257 34.2566 10.021 34.2443 10.0178C34.195 10.0069 34.1437 10 34.0918 10H18.0405C17.3075 10 16.712 10.5631 16.712 11.255V21.446H15.8988C14.8503 21.446 14 22.2488 14 23.2394V32.5665C14 33.5567 14.8502 34.3603 15.8988 34.3603H16.712V40.745C16.712 41.4368 17.3075 42 18.0405 42H39.9595C40.6918 42 41.288 41.4369 41.288 40.745V34.3603H42.1015C43.1497 34.3603 44 33.557 44 32.5668V23.2398C43.9999 22.2488 43.1496 21.4463 42.1014 21.4463ZM18.0405 11.255H33.4277V17.6753C33.4277 18.0219 33.7254 18.3027 34.0919 18.3027H39.9595V21.4463H18.0405V11.255ZM32.4897 25.8863C32.4897 26.7659 32.179 27.5129 31.615 28.0196C30.8805 28.6728 29.794 28.9666 28.5231 28.9666C28.2413 28.9666 27.9875 28.9528 27.7895 28.9265V32.1397H25.6583V23.2727C26.3219 23.1663 27.2539 23.0864 28.5657 23.0864C29.8932 23.0864 30.8383 23.3261 31.474 23.8058C32.0807 24.2593 32.4897 25.0061 32.4897 25.8863ZM17.9368 32.1397H15.7068L18.614 23.1526H21.4369L24.3868 32.1397H22.0716L21.338 29.833H18.614L17.9368 32.1397ZM39.9595 40.405H18.0405V34.3603H39.9595V40.405ZM39.139 32.1397L36.8097 28.2598L35.9911 29.2065V32.1397H33.8597V23.1526H35.9911V27.126H36.0333C36.2447 26.7795 36.4708 26.4596 36.6826 26.1392L38.8426 23.1523H41.4816L38.3335 26.9792L41.6506 32.1391H39.1391V32.1397H39.139Z" fill="white"/>
<path d="M20.4344 26.4064C20.265 25.873 20.0956 25.2063 19.9545 24.6731H19.9267C19.7852 25.2063 19.6436 25.8868 19.489 26.4064L18.9243 28.3135H21.0269L20.4344 26.4064Z" fill="white"/>
<path d="M28.6789 24.6194C28.2412 24.6194 27.9449 24.6592 27.7891 24.6994V27.3527C27.9728 27.3925 28.1987 27.406 28.5094 27.406C29.6531 27.406 30.3582 26.8594 30.3582 25.9388C30.3582 25.1125 29.7511 24.6194 28.6789 24.6194Z" fill="white"/>
<path d="M58.2905 39H56.0405L60.1371 27.3636H62.7393L66.8416 39H64.5916L61.4837 29.75H61.3928L58.2905 39ZM58.3643 34.4375H64.5007V36.1307H58.3643V34.4375ZM68.3743 39V27.3636H72.7379C73.6319 27.3636 74.3819 27.5303 74.9879 27.8636C75.5978 28.197 76.058 28.6553 76.3686 29.2386C76.683 29.8182 76.8402 30.4773 76.8402 31.2159C76.8402 31.9621 76.683 32.625 76.3686 33.2045C76.0542 33.7841 75.5902 34.2405 74.9766 34.5739C74.3629 34.9034 73.6072 35.0682 72.7095 35.0682H69.8175V33.3352H72.4254C72.9482 33.3352 73.3762 33.2443 73.7095 33.0625C74.0429 32.8807 74.2891 32.6307 74.4482 32.3125C74.611 31.9943 74.6925 31.6288 74.6925 31.2159C74.6925 30.803 74.611 30.4394 74.4482 30.125C74.2891 29.8106 74.041 29.5663 73.7038 29.392C73.3705 29.214 72.9406 29.125 72.4141 29.125H70.4822V39H68.3743ZM78.6712 39V27.3636H80.7791V32.7102H80.9212L85.4609 27.3636H88.0348L83.5348 32.5852L88.0746 39H85.5405L82.0689 34.0114L80.7791 35.5341V39H78.6712Z" fill="white"/>
<defs>
<linearGradient id="paint0_linear_216_3962" x1="127.782" y1="51.7596" x2="127.782" y2="-134.416" gradientUnits="userSpaceOnUse">
<stop stop-color="#1A1A1A" stop-opacity="0.1"/>
<stop offset="0.123" stop-color="#212121" stop-opacity="0.151"/>
<stop offset="0.308" stop-color="#353535" stop-opacity="0.227"/>
<stop offset="0.532" stop-color="#575757" stop-opacity="0.318"/>
<stop offset="0.783" stop-color="#858585" stop-opacity="0.421"/>
<stop offset="1" stop-color="#B3B3B3" stop-opacity="0.51"/>
</linearGradient>
</defs>
</svg>
