<svg width="175" height="52" viewBox="0 0 175 52" fill="none" xmlns="http://www.w3.org/2000/svg">
<path d="M173.07 45.5281C173.07 46.1779 172.942 46.8212 172.694 47.4214C172.445 48.0216 172.08 48.5669 171.62 49.0261C171.16 49.4852 170.615 49.8493 170.014 50.0975C169.413 50.3456 168.77 50.473 168.12 50.4724H6.10656C4.79344 50.4737 3.53353 49.9536 2.60392 49.0264C1.67432 48.0993 1.15113 46.8409 1.14941 45.5281V6.0996C1.15112 4.78623 1.67411 3.52722 2.60353 2.59901C3.53296 1.6708 4.79285 1.14927 6.10656 1.14893H168.118C168.769 1.14893 169.413 1.27699 170.013 1.5258C170.614 1.77461 171.16 2.13929 171.62 2.59902C172.079 3.05875 172.444 3.60452 172.693 4.20516C172.941 4.80579 173.069 5.44953 173.069 6.0996L173.07 45.5281Z" fill="white"/>
<path d="M168.12 51.6226H6.10637C4.48876 51.6222 2.93734 50.9803 1.79254 49.8378C0.647743 48.6952 0.00307788 47.1453 0 45.5281L0 6.10088C0.00239303 4.48289 0.646633 2.93191 1.79139 1.78818C2.93615 0.644451 4.48795 0.00136565 6.10637 0L168.118 0C169.737 0.00204707 171.288 0.645351 172.433 1.78893C173.577 2.93252 174.222 4.4831 174.225 6.10088V45.5281C174.227 48.8897 171.483 51.6226 168.12 51.6226Z" fill="#A6A6A6"/>
<path d="M173.07 45.5281C173.07 46.1779 172.942 46.8212 172.694 47.4214C172.445 48.0216 172.08 48.5669 171.62 49.0261C171.16 49.4852 170.615 49.8493 170.014 50.0975C169.413 50.3456 168.77 50.473 168.12 50.4724H6.10656C4.79344 50.4737 3.53353 49.9536 2.60392 49.0264C1.67432 48.0993 1.15113 46.8409 1.14941 45.5281V6.0996C1.15112 4.78623 1.67411 3.52722 2.60353 2.59901C3.53296 1.6708 4.79285 1.14927 6.10656 1.14893H168.118C168.769 1.14893 169.413 1.27699 170.013 1.5258C170.614 1.77461 171.16 2.13929 171.62 2.59902C172.079 3.05875 172.444 3.60452 172.693 4.20516C172.941 4.80579 173.069 5.44953 173.069 6.0996L173.07 45.5281Z" fill="black"/>
<path d="M38.903 25.5395C38.8656 21.3789 42.3106 19.3547 42.4682 19.2605C40.5171 16.4166 37.4929 16.028 36.4302 15.9971C33.8903 15.7298 31.4266 17.5165 30.1328 17.5165C28.8131 17.5165 26.8207 16.0229 24.6733 16.0668C21.91 16.1094 19.3249 17.7088 17.9071 20.1925C14.9811 25.2568 17.1633 32.699 19.9667 36.7925C21.369 38.7986 23.0076 41.0357 25.1524 40.957C27.2507 40.8718 28.0345 39.6209 30.5666 39.6209C33.0755 39.6209 33.8116 40.957 35.999 40.9066C38.2509 40.8718 39.6687 38.8928 41.022 36.8699C42.6425 34.5734 43.2933 32.3091 43.3191 32.1929C43.2675 32.1749 38.9469 30.5251 38.903 25.5395ZM34.771 13.3042C35.8995 11.8932 36.6717 9.97363 36.4574 8.02563C34.8239 8.09793 32.7811 9.15519 31.6048 10.5352C30.564 11.7512 29.6343 13.7444 29.8745 15.6188C31.7094 15.7557 33.5933 14.6932 34.771 13.3042Z" fill="white"/>
<path d="M168.12 0H81.3403L115.33 51.6226H168.12C169.737 51.6212 171.289 50.9785 172.434 49.8353C173.578 48.6921 174.223 47.1418 174.226 45.5243V6.10088C174.223 4.483 173.579 2.93221 172.434 1.78856C171.289 0.644901 169.738 0.00170649 168.12 0Z" fill="url(#paint0_linear_212_4924)"/>
<path d="M69.2954 40.6692H66.3629L64.7566 35.623H59.1732L57.6431 40.6692H54.7881L60.3211 23.4897H63.7378L69.2954 40.6692ZM64.2724 33.5059L62.8197 29.02C62.6661 28.5617 62.3768 27.4825 61.9533 25.7836H61.9016C61.7312 26.5143 61.4587 27.5935 61.0856 29.02L59.6574 33.5059H64.2724ZM83.4967 34.3231C83.4967 36.4298 82.9247 38.0951 81.7793 39.3176C80.754 40.4059 79.4796 40.9493 77.9598 40.9493C76.3186 40.9493 75.1384 40.3646 74.4217 39.1924V45.6922H71.6687V32.3531C71.6687 31.0299 71.6339 29.6732 71.5667 28.2816H73.9878L74.1415 30.245H74.1932C75.1112 28.7656 76.5045 28.0259 78.3743 28.0259C79.836 28.0259 81.0562 28.603 82.0324 29.7584C83.0073 30.9163 83.4967 32.437 83.4967 34.3231ZM80.6921 34.4237C80.6921 33.218 80.4209 32.224 79.876 31.4404C79.2807 30.6259 78.4814 30.2179 77.4794 30.2179C76.8002 30.2179 76.183 30.4451 75.6316 30.8931C75.079 31.3449 74.7174 31.9349 74.5483 32.6655C74.4727 32.9388 74.4298 33.22 74.4204 33.5033V35.5701C74.4204 36.4699 74.6967 37.2302 75.2494 37.8524C75.8021 38.4721 76.52 38.7832 77.4032 38.7832C78.4401 38.7832 79.2471 38.3817 79.8243 37.5852C80.4028 36.7861 80.6921 35.7327 80.6921 34.4237ZM97.7483 34.3231C97.7483 36.4298 97.1763 38.0951 96.031 39.3176C95.0044 40.4059 93.7312 40.9493 92.2101 40.9493C90.5689 40.9493 89.3887 40.3646 88.6721 39.1924V45.6922H85.9191V32.3531C85.9191 31.0299 85.8842 29.6732 85.8171 28.2816H88.2382L88.3919 30.245H88.4435C89.3603 28.7656 90.7536 28.0259 92.6246 28.0259C94.085 28.0259 95.3053 28.603 96.284 29.7584C97.2577 30.9163 97.7483 32.437 97.7483 34.3231ZM94.9424 34.4237C94.9424 33.218 94.67 32.224 94.1251 31.4404C93.5298 30.6259 92.7331 30.2179 91.7311 30.2179C91.0519 30.2179 90.4346 30.4451 89.8807 30.8931C89.328 31.3449 88.9678 31.9349 88.7986 32.6655C88.7147 33.0063 88.6695 33.2839 88.6695 33.5033V35.5701C88.6695 36.4699 88.9471 37.2302 89.4972 37.8524C90.0498 38.4708 90.7678 38.7832 91.6536 38.7832C92.6918 38.7832 93.4988 38.3817 94.0747 37.5852C94.6532 36.7861 94.9424 35.7327 94.9424 34.4237ZM113.682 35.8502C113.682 37.3128 113.171 38.5018 112.155 39.4196C111.037 40.4214 109.476 40.9235 107.474 40.9235C105.625 40.9235 104.143 40.5672 103.024 39.8534L103.661 37.5594C104.868 38.2746 106.194 38.6308 107.638 38.6308C108.676 38.6308 109.483 38.3959 110.059 37.9299C110.636 37.4626 110.928 36.8378 110.928 36.058C110.928 35.3597 110.687 34.7749 110.213 34.2985C109.736 33.8235 108.949 33.3807 107.842 32.974C104.833 31.8522 103.328 30.2115 103.328 28.0531C103.328 26.6434 103.86 25.4893 104.921 24.5869C105.983 23.6859 107.39 23.2354 109.141 23.2354C110.705 23.2354 112.008 23.5077 113.042 24.0512L112.351 26.2948C111.378 25.7681 110.279 25.5048 109.049 25.5048C108.078 25.5048 107.317 25.7436 106.772 26.2187C106.313 26.6434 106.081 27.161 106.081 27.7755C106.081 28.4532 106.346 29.0161 106.872 29.4576C107.329 29.8642 108.164 30.307 109.37 30.7821C110.849 31.3785 111.937 32.073 112.633 32.8708C113.334 33.6686 113.682 34.6639 113.682 35.8502ZM122.808 30.347H119.773V36.3614C119.773 37.8912 120.308 38.6541 121.38 38.6541C121.872 38.6541 122.28 38.6128 122.603 38.5263L122.679 40.6163C122.136 40.819 121.422 40.9209 120.538 40.9209C119.451 40.9209 118.601 40.5892 117.988 39.9256C117.377 39.2621 117.069 38.1506 117.069 36.586V30.3419H115.262V28.2764H117.069V26.0082L119.773 25.1924V28.2764H122.808V30.347ZM136.472 34.3734C136.472 36.2775 135.927 37.8408 134.84 39.0633C133.702 40.322 132.189 40.9493 130.302 40.9493C128.482 40.9493 127.034 40.3465 125.955 39.1421C124.875 37.935 124.335 36.4143 124.335 34.5799C124.335 32.6604 124.893 31.088 126.005 29.8655C127.119 28.6417 128.62 28.0298 130.506 28.0298C132.324 28.0298 133.785 28.634 134.89 29.8397C135.946 31.0093 136.472 32.5196 136.472 34.3734ZM133.618 34.4367C133.618 33.3019 133.373 32.3286 132.881 31.514C132.304 30.5303 131.477 30.0385 130.407 30.0385C129.304 30.0385 128.458 30.5303 127.882 31.514C127.389 32.3286 127.144 33.3187 127.144 34.4883C127.144 35.6243 127.389 36.6002 127.882 37.4122C128.478 38.3959 129.308 38.8877 130.384 38.8877C131.436 38.8877 132.261 38.3856 132.858 37.3877C133.364 36.5538 133.618 35.574 133.618 34.4367ZM145.424 30.702C145.138 30.6503 144.847 30.6249 144.557 30.6259C143.588 30.6259 142.839 30.9899 142.312 31.7231C141.855 32.3686 141.625 33.1845 141.625 34.1694V40.6692H138.872V32.1827C138.875 30.8823 138.848 29.582 138.792 28.2828H141.19L141.291 30.653H141.367C141.659 29.8384 142.116 29.1813 142.744 28.6895C143.318 28.2597 144.016 28.027 144.733 28.0259C144.988 28.0259 145.218 28.044 145.422 28.0763L145.424 30.702ZM157.736 33.8893C157.743 34.3077 157.71 34.7258 157.636 35.1376H149.377C149.408 36.3614 149.808 37.2986 150.575 37.9441C151.271 38.5198 152.171 38.809 153.276 38.809C154.499 38.809 155.615 38.6154 156.618 38.2242L157.049 40.1335C155.877 40.6447 154.493 40.899 152.895 40.899C150.974 40.899 149.466 40.3336 148.368 39.2053C147.273 38.0758 146.725 36.5576 146.725 34.6561C146.725 32.7894 147.235 31.2339 148.256 29.9933C149.325 28.6688 150.77 28.0066 152.588 28.0066C154.374 28.0066 155.726 28.6688 156.644 29.9933C157.371 31.0428 157.736 32.3441 157.736 33.8893ZM155.111 33.1754C155.131 32.3583 154.95 31.6547 154.577 31.0596C154.1 30.2928 153.367 29.9107 152.384 29.9107C151.484 29.9107 150.751 30.2838 150.193 31.0325C149.734 31.6276 149.462 32.3428 149.378 33.1728L155.111 33.1754Z" fill="white"/>
<path d="M58.3789 17.4159C57.6132 17.4159 56.9508 17.3784 56.3994 17.3152V9.0094C57.1706 8.89031 57.9498 8.83161 58.7301 8.83384C61.8873 8.83384 63.3412 10.3868 63.3412 12.9183C63.3412 15.8384 61.6239 17.4159 58.3789 17.4159ZM58.8412 9.89885C58.4151 9.89885 58.0522 9.92467 57.7514 9.98663V16.3005C57.9141 16.3263 58.2265 16.338 58.6656 16.338C60.7342 16.338 61.9118 15.1606 61.9118 12.9557C61.9118 10.9897 60.8465 9.89885 58.8412 9.89885ZM67.8723 17.4791C66.0929 17.4791 64.9398 16.1508 64.9398 14.3474C64.9398 12.4678 66.1174 11.1278 67.973 11.1278C69.7265 11.1278 70.9054 12.3929 70.9054 14.248C70.9054 16.1508 69.6904 17.4791 67.8723 17.4791ZM67.9239 12.1166C66.9464 12.1166 66.3202 13.0306 66.3202 14.3086C66.3202 15.5621 66.9593 16.4761 67.911 16.4761C68.8627 16.4761 69.5018 15.4989 69.5018 14.2828C69.5018 13.0435 68.8756 12.1166 67.9239 12.1166ZM81.0522 11.253L79.1475 17.341H77.9067L77.1177 14.6972C76.9215 14.0505 76.7582 13.3943 76.6283 12.7311H76.6025C76.5031 13.3947 76.3145 14.0595 76.1144 14.6972L75.2751 17.341H74.0212L72.229 11.253H73.6197L74.3092 14.1473C74.4719 14.8366 74.6088 15.4872 74.7224 16.1017H74.7482C74.8477 15.5892 75.0104 14.9489 75.2492 14.1602L76.1144 11.2543H77.2171L78.0448 14.0982C78.245 14.7876 78.4077 15.464 78.5342 16.103H78.5704C78.6582 15.4769 78.7963 14.8121 78.9836 14.0982L79.7235 11.2543L81.0522 11.253ZM88.0637 17.341H86.7105V13.8452C86.7105 12.7686 86.2973 12.229 85.4825 12.229C84.6806 12.229 84.1292 12.9183 84.1292 13.72V17.341H82.776V12.9932C82.776 12.4549 82.7631 11.8778 82.7256 11.2517H83.9162L83.9795 12.1915H84.0169C84.381 11.5409 85.1196 11.1278 85.9473 11.1278C87.2257 11.1278 88.065 12.105 88.065 13.6954L88.0637 17.341ZM91.7954 17.341H90.4409V8.45947H91.7954V17.341ZM96.7294 17.4791C94.9513 17.4791 93.7969 16.1508 93.7969 14.3474C93.7969 12.4678 94.9745 11.1278 96.8288 11.1278C98.5836 11.1278 99.7612 12.3929 99.7612 14.248C99.7625 16.1508 98.5462 17.4791 96.7294 17.4791ZM96.7797 12.1166C95.8022 12.1166 95.176 13.0306 95.176 14.3086C95.176 15.5621 95.8164 16.4761 96.7655 16.4761C97.7185 16.4761 98.3563 15.4989 98.3563 14.2828C98.3576 13.0435 97.7327 12.1166 96.7797 12.1166ZM105.097 17.341L104.999 16.64H104.962C104.549 17.2042 103.946 17.4791 103.182 17.4791C102.091 17.4791 101.316 16.7149 101.316 15.6873C101.316 14.1847 102.619 13.4076 104.875 13.4076V13.2953C104.875 12.4936 104.45 12.0921 103.61 12.0921C103.01 12.0921 102.483 12.2432 102.02 12.5439L101.745 11.6545C102.308 11.3034 103.01 11.1278 103.835 11.1278C105.426 11.1278 106.229 11.9669 106.229 13.6464V15.8887C106.229 16.5032 106.256 16.9795 106.317 17.3423L105.097 17.341ZM104.911 14.3086C103.408 14.3086 102.654 14.6727 102.654 15.5363C102.654 16.1753 103.042 16.4877 103.582 16.4877C104.27 16.4877 104.911 15.9623 104.911 15.2484V14.3086ZM112.8 17.341L112.737 16.3638H112.7C112.311 17.1022 111.658 17.4791 110.745 17.4791C109.277 17.4791 108.189 16.1882 108.189 14.3719C108.189 12.4678 109.317 11.1265 110.856 11.1265C111.671 11.1265 112.248 11.4015 112.573 11.954H112.6V8.45947H113.955V15.7002C113.955 16.2889 113.969 16.8401 114.005 17.341H112.8ZM112.6 13.7587C112.6 12.9067 112.036 12.1799 111.175 12.1799C110.171 12.1799 109.558 13.0693 109.558 14.3215C109.558 15.5492 110.195 16.3896 111.148 16.3896C111.999 16.3896 112.6 15.6499 112.6 14.7734V13.7587ZM122.543 17.4791C120.765 17.4791 119.612 16.1508 119.612 14.3474C119.612 12.4678 120.789 11.1278 122.644 11.1278C124.398 11.1278 125.576 12.3929 125.576 14.248C125.577 16.1508 124.362 17.4791 122.543 17.4791ZM122.593 12.1166C121.617 12.1166 120.991 13.0306 120.991 14.3086C120.991 15.5621 121.63 16.4761 122.58 16.4761C123.533 16.4761 124.171 15.4989 124.171 14.2828C124.174 13.0435 123.548 12.1166 122.593 12.1166ZM132.854 17.341H131.499V13.8452C131.499 12.7686 131.086 12.229 130.271 12.229C129.469 12.229 128.919 12.9183 128.919 13.72V17.341H127.565V12.9932C127.565 12.4549 127.552 11.8778 127.514 11.2517H128.705L128.768 12.1915H128.806C129.168 11.5409 129.908 11.1265 130.735 11.1265C132.013 11.1265 132.854 12.1037 132.854 13.6941V17.341ZM141.958 12.2677H140.47V15.2239C140.47 15.9765 140.73 16.3522 141.257 16.3522C141.496 16.3522 141.696 16.3263 141.858 16.2889L141.895 17.3165C141.633 17.4172 141.282 17.4675 140.845 17.4675C139.779 17.4675 139.141 16.8788 139.141 15.3375V12.2677H138.252V11.253H139.141V10.1377L140.47 9.73619V11.2517H141.958V12.2677ZM149.122 17.341H147.77V13.871C147.77 12.7815 147.358 12.2302 146.542 12.2302C145.841 12.2302 145.188 12.7066 145.188 13.6709V17.341H143.836V8.45947H145.188V12.1166H145.215C145.641 11.4531 146.258 11.1265 147.046 11.1265C148.335 11.1265 149.122 12.1283 149.122 13.72V17.341ZM156.462 14.6223H152.401C152.427 15.7751 153.19 16.4257 154.32 16.4257C154.92 16.4257 155.473 16.325 155.961 16.1379L156.171 17.0776C155.595 17.3281 154.917 17.4533 154.128 17.4533C152.224 17.4533 151.097 16.2502 151.097 14.3848C151.097 12.5181 152.251 11.1149 153.976 11.1149C155.532 11.1149 156.508 12.2677 156.508 14.0091C156.517 14.2146 156.501 14.4205 156.462 14.6223ZM155.221 13.658C155.221 12.7182 154.747 12.0547 153.882 12.0547C153.105 12.0547 152.49 12.7311 152.402 13.658H155.221Z" fill="white"/>
<defs>
<linearGradient id="paint0_linear_212_4924" x1="127.782" y1="51.7596" x2="127.782" y2="-134.416" gradientUnits="userSpaceOnUse">
<stop stop-color="#1A1A1A" stop-opacity="0.1"/>
<stop offset="0.123" stop-color="#212121" stop-opacity="0.151"/>
<stop offset="0.308" stop-color="#353535" stop-opacity="0.227"/>
<stop offset="0.532" stop-color="#575757" stop-opacity="0.318"/>
<stop offset="0.783" stop-color="#858585" stop-opacity="0.421"/>
<stop offset="1" stop-color="#B3B3B3" stop-opacity="0.51"/>
</linearGradient>
</defs>
</svg>
