<svg width="600" height="600" viewBox="0 0 642 643" fill="none" xmlns="http://www.w3.org/2000/svg">
<path d="M454.338 133.062C494.344 161.345 524.297 201.639 539.852 248.097C555.406 294.556 555.753 344.762 540.841 391.431C525.929 438.1 496.535 478.804 456.924 507.636C417.313 536.469 369.545 551.93 320.552 551.776C271.559 551.622 223.889 535.861 184.46 506.78C145.031 477.699 115.893 436.811 101.275 390.05C86.6575 343.288 87.3197 293.084 103.166 246.724C119.012 200.364 149.218 160.26 189.401 132.229L321.277 321.277L454.338 133.062Z" fill="url(#paint0_linear_14_149)"/>
<path d="M238.5 69.4999C272.937 58.2481 324.697 52.4591 360.5 58.0003C396.302 63.5416 444.076 84.8644 473.5 106L321.276 321.277L238.5 69.4999Z" fill="#FFD179"/>
<path d="M238.5 69.4999C272.937 58.2481 324.697 52.4591 360.5 58.0003C396.302 63.5416 444.076 84.8644 473.5 106L321.276 321.277L238.5 69.4999Z" fill="#FFD179"/>
<path d="M178.5 81.5C194.803 71.5589 217.254 62.1312 235.5 56.5L321.277 321.276L178.5 81.5Z" fill="#FFE4B0"/>
<path d="M136 60.5001C140.705 57.1998 152.562 47.9396 157.5 45L321.276 321.277L136 60.5001Z" fill="#E00000"/>
<path d="M260.839 366.615C264.327 367.321 266.963 368.546 268.748 370.289C270.533 371.991 271.426 374.441 271.426 377.637V377.887C271.426 382.578 269.474 385.899 265.572 387.85C261.711 389.76 256.148 390.735 248.883 390.777H248.759H246.33H212.33V344.696H251.748C256.563 344.737 260.403 345.733 263.268 347.685C266.132 349.636 267.565 352.397 267.565 355.967V356.216C267.565 358.914 267.004 361.115 265.883 362.817C264.763 364.519 263.081 365.785 260.839 366.615ZM244.524 362.754C246.6 362.754 248.115 362.713 249.07 362.63C250.066 362.505 250.897 362.132 251.561 361.509C252.267 360.886 252.619 359.848 252.619 358.395C252.619 357.067 252.287 356.112 251.623 355.531C250.959 354.95 250.108 354.597 249.07 354.472C248.032 354.306 246.517 354.223 244.524 354.223H244.462H226.714V362.692C230.99 362.692 233.813 362.713 235.183 362.754H238.172H244.524ZM246.579 380.377C248.904 380.377 250.648 380.315 251.81 380.191C252.972 380.025 253.906 379.609 254.612 378.945C255.318 378.239 255.671 377.139 255.671 375.645C255.671 374.192 255.318 373.154 254.612 372.531C253.906 371.867 252.972 371.473 251.81 371.348C250.648 371.182 248.904 371.099 246.579 371.099H246.517H226.714V380.315C232.568 380.315 236.719 380.336 239.169 380.377C241.66 380.377 243.362 380.377 244.275 380.377H246.579ZM304.848 356.839H319.171V390.777H304.848V386.542C301.693 390.113 296.898 391.898 290.463 391.898C285.357 391.898 281.392 390.258 278.569 386.978C275.788 383.699 274.397 378.322 274.397 370.85V356.839H288.72V370.663C288.72 373.278 288.865 375.416 289.156 377.077C289.446 378.738 290.152 380.128 291.273 381.249C292.394 382.37 294.137 382.931 296.504 382.931C299.783 382.931 301.984 381.81 303.105 379.568C304.267 377.285 304.848 374.316 304.848 370.663V356.839ZM336.637 362.754C339.958 359.101 345.21 356.901 352.392 356.154V366.989H344.11C341.536 366.989 339.668 367.965 338.505 369.916C337.343 371.825 336.762 374.337 336.762 377.451V390.777H322.439V356.839H335.454L336.637 362.754ZM384.046 355.718C389.152 355.718 393.096 357.358 395.878 360.637C398.701 363.917 400.112 369.293 400.112 376.766V390.777H385.79V376.952C385.79 374.337 385.644 372.199 385.354 370.538C385.063 368.878 384.357 367.487 383.236 366.366C382.115 365.245 380.372 364.685 378.006 364.685C375.515 364.685 373.667 365.225 372.463 366.304C371.259 367.342 370.491 368.691 370.159 370.352C369.827 372.012 369.661 374.192 369.661 376.89V390.777H355.339V356.839H369.661V361.073C372.816 357.503 377.611 355.718 384.046 355.718ZM423.814 356.839H430.291V366.615H423.814V390.777H409.492V366.615H402.704V356.839H409.492V349.491L423.814 343.699V356.839Z" fill="#E00000"/>
<path d="M290.272 423.121C294.631 425.321 296.81 428.933 296.81 433.956C296.81 440.225 293.946 444.542 288.217 446.909C282.529 449.234 276.157 450.396 269.099 450.396C261.46 450.396 254.631 449.358 248.612 447.282C242.592 445.165 239.582 440.723 239.582 433.956C239.541 428.767 241.637 425.072 245.872 422.872C242.841 421.17 241.326 418.492 241.326 414.839C241.326 409.151 244.066 405.477 249.546 403.816C255.026 402.156 261.087 401.326 267.729 401.326C274.662 401.326 280.952 402.156 286.598 403.816C292.244 405.477 295.067 409.13 295.067 414.776C295.067 418.596 293.468 421.377 290.272 423.121ZM267.729 410.168C264.325 410.127 261.44 410.48 259.073 411.227C256.707 411.974 255.524 413.178 255.524 414.839C255.524 416.458 256.707 417.641 259.073 418.388C261.481 419.094 264.387 419.405 267.791 419.322C271.362 419.405 274.392 419.094 276.883 418.388C279.374 417.641 280.619 416.458 280.619 414.839C280.619 413.178 279.374 411.974 276.883 411.227C274.392 410.48 271.341 410.127 267.729 410.168ZM267.791 440.246C272.026 440.287 275.596 439.81 278.502 438.813C281.45 437.775 282.924 436.136 282.924 433.894C282.924 431.611 281.45 429.971 278.502 428.974C275.596 427.937 272.026 427.438 267.791 427.48C263.723 427.438 260.257 427.937 257.392 428.974C254.569 429.971 253.158 431.611 253.158 433.894C253.158 436.136 254.569 437.775 257.392 438.813C260.257 439.81 263.723 440.287 267.791 440.246ZM329.476 402.073C348.739 401.99 358.37 409.815 358.37 425.549C358.37 431.694 356.419 437.257 352.516 442.238C348.655 447.179 340.975 449.649 329.476 449.649C321.38 449.649 315.112 448.299 310.67 445.601C306.228 442.903 303.259 439.747 301.765 436.136C300.312 432.524 299.647 428.995 299.772 425.549C299.772 419.571 301.827 414.174 305.937 409.359C310.047 404.501 317.893 402.073 329.476 402.073ZM329.538 438.377C333.15 438.377 336.077 437.775 338.318 436.572C340.602 435.326 342.221 433.749 343.176 431.839C344.13 429.888 344.566 427.77 344.483 425.487C344.566 423.328 344.13 421.336 343.176 419.509C342.221 417.682 340.602 416.188 338.318 415.025C336.077 413.863 333.15 413.282 329.538 413.282C325.968 413.282 323.062 413.863 320.82 415.025C318.578 416.188 316.98 417.682 316.025 419.509C315.07 421.336 314.634 423.328 314.717 425.487C314.634 427.77 315.07 429.888 316.025 431.839C316.98 433.749 318.578 435.326 320.82 436.572C323.062 437.775 325.968 438.377 329.538 438.377ZM372.6 448.777H360.768L401.245 405.186H413.077L372.6 448.777ZM374.717 425.363C372.932 425.363 371.272 424.927 369.736 424.055C368.199 423.142 366.975 421.917 366.061 420.381C365.19 418.845 364.754 417.184 364.754 415.399C364.754 413.614 365.19 411.953 366.061 410.417C366.975 408.881 368.199 407.677 369.736 406.806C371.272 405.892 372.932 405.436 374.717 405.436C376.502 405.436 378.163 405.892 379.699 406.806C381.235 407.677 382.439 408.881 383.311 410.417C384.224 411.953 384.681 413.614 384.681 415.399C384.681 417.184 384.224 418.845 383.311 420.381C382.439 421.917 381.235 423.142 379.699 424.055C378.163 424.927 376.502 425.363 374.717 425.363ZM374.717 419.011C375.714 419.011 376.544 418.658 377.208 417.952C377.914 417.246 378.267 416.395 378.267 415.399C378.267 414.403 377.914 413.552 377.208 412.846C376.544 412.14 375.714 411.787 374.717 411.787C373.721 411.787 372.87 412.14 372.164 412.846C371.5 413.552 371.168 414.403 371.168 415.399C371.168 416.395 371.5 417.246 372.164 417.952C372.87 418.658 373.721 419.011 374.717 419.011ZM399.128 448.403C397.343 448.403 395.682 447.967 394.146 447.096C392.61 446.182 391.385 444.958 390.472 443.421C389.6 441.885 389.164 440.225 389.164 438.44C389.164 436.655 389.6 434.994 390.472 433.458C391.385 431.922 392.61 430.718 394.146 429.846C395.682 428.933 397.343 428.476 399.128 428.476C400.913 428.476 402.574 428.933 404.11 429.846C405.646 430.718 406.85 431.922 407.721 433.458C408.635 434.994 409.091 436.655 409.091 438.44C409.091 440.225 408.635 441.885 407.721 443.421C406.85 444.958 405.646 446.182 404.11 447.096C402.574 447.967 400.913 448.403 399.128 448.403ZM399.128 441.989C400.083 441.989 400.913 441.636 401.619 440.931C402.325 440.225 402.677 439.395 402.677 438.44C402.677 437.443 402.325 436.613 401.619 435.949C400.913 435.243 400.083 434.89 399.128 434.89C398.173 434.89 397.343 435.243 396.637 435.949C395.931 436.655 395.578 437.485 395.578 438.44C395.578 439.395 395.931 440.225 396.637 440.931C397.343 441.636 398.173 441.989 399.128 441.989Z" fill="#E00000"/>
<path d="M102.587 464.152C100.088 448.595 86.6895 411.698 93.8411 395.448C102.781 375.136 106.957 330.938 103.346 312.856C100.852 300.371 122.733 329.661 135.56 355.224C136.911 348.993 138.929 343.353 141.798 338.691C189.478 261.199 153.974 224.926 171.698 250.814C183.237 267.669 195.908 357.36 179.921 403.027C163.934 448.693 181.407 473.352 204.471 493.853C227.534 514.355 246.641 519.991 236.919 483.773C227.197 447.555 189.791 462.627 198.3 442.432C209.368 416.164 206.893 404.608 215.85 440.309C224.368 474.26 270.214 483.267 289.972 494.695C309.731 506.123 317.917 520.803 316.212 530.268C314.508 539.734 356.411 531.858 353.842 511.798C351.274 491.738 354.626 471.908 370.797 467.653C415.857 455.795 436.853 442.57 434.424 416.011C431.995 389.453 446.98 443.288 437.357 465.586C423.671 497.298 368.567 455.102 384.652 497.735C400.738 540.368 480.028 473.23 454.732 401.945C444.359 372.715 426.977 343.834 433.751 307.972C439.17 279.282 442.358 256.645 450.018 249.308C443.967 259.347 443.24 285.371 456.745 308.467C473.627 337.337 491.3 336.912 500.593 362.424C506.747 379.316 505.774 400.544 506.612 408.064C511.878 403.51 531.434 387.31 530.777 362.09C529.956 330.565 525.398 309.962 546.273 362.424C562.973 404.393 550.169 436.842 546.273 447.427C534.027 505.177 456.463 589.803 325.493 586.981C202.262 584.327 125.558 512.158 102.587 464.152Z" fill="#1B1B1B"/>
<path d="M285.65 468.7V480H283.146V472.228H280.596V470.624C281.542 470.624 282.24 470.507 282.688 470.273C283.146 470.039 283.426 469.789 283.527 469.525C283.639 469.25 283.695 468.975 283.695 468.7H285.65ZM300.948 477.939V480H287.037V479.007C287.037 477.684 287.276 476.676 287.755 475.984C288.233 475.282 288.819 474.803 289.511 474.549C290.213 474.294 291.15 474.07 292.321 473.877C292.677 473.826 293.293 473.744 294.168 473.632C295.054 473.531 295.751 473.434 296.26 473.342C296.779 473.251 297.207 473.108 297.543 472.915C297.889 472.711 298.062 472.436 298.062 472.09C298.062 471.459 297.645 470.996 296.81 470.701C295.985 470.405 294.973 470.263 293.771 470.273C292.621 470.273 291.644 470.451 290.839 470.807C290.035 471.154 289.633 471.703 289.633 472.457L287.037 472.441C287.037 471.403 287.404 470.583 288.137 469.983C288.88 469.372 289.76 468.95 290.778 468.715C291.796 468.481 292.789 468.364 293.756 468.364C295.527 468.364 297.12 468.614 298.536 469.112C299.961 469.601 300.673 470.594 300.673 472.09C300.673 472.894 300.337 473.531 299.665 473.999C299.004 474.467 298.256 474.798 297.421 474.991C296.596 475.185 295.619 475.358 294.489 475.511C294.041 475.562 293.705 475.607 293.481 475.648C292.667 475.729 291.954 475.897 291.343 476.152C290.743 476.406 290.28 476.697 289.954 477.022C289.638 477.338 289.48 477.643 289.48 477.939H300.948ZM320.592 471.403C321.417 471.403 322.084 471.571 322.593 471.907C323.112 472.243 323.499 472.787 323.753 473.541C324.008 474.294 324.135 475.302 324.135 476.564V480H321.707V476.61C321.707 475.643 321.529 474.823 321.173 474.152C320.816 473.47 320.175 473.128 319.249 473.128C318.587 473.128 318.083 473.281 317.737 473.587C317.391 473.882 317.162 474.274 317.05 474.762C316.938 475.251 316.882 475.852 316.882 476.564V480H314.439V476.61C314.439 475.623 314.276 474.798 313.95 474.136C313.634 473.464 313.018 473.128 312.102 473.128C311.318 473.128 310.743 473.296 310.377 473.632C310.02 473.958 309.796 474.396 309.705 474.946C309.623 475.485 309.583 476.254 309.583 477.251V480H307.124V471.678H309.109L309.552 472.838C310.377 471.881 311.644 471.403 313.354 471.403C314.128 471.403 314.754 471.551 315.233 471.846C315.721 472.141 316.098 472.625 316.363 473.296C316.719 472.625 317.238 472.141 317.92 471.846C318.612 471.551 319.503 471.403 320.592 471.403ZM327.715 480H325.272V468.7H327.715V480ZM335.198 471.403C336.359 471.403 337.265 471.8 337.916 472.594C338.568 473.378 338.893 474.701 338.893 476.564V480H336.45V476.61C336.45 475.959 336.399 475.388 336.298 474.9C336.196 474.411 335.967 473.999 335.61 473.663C335.264 473.317 334.74 473.144 334.038 473.144C333.315 473.144 332.765 473.317 332.388 473.663C332.022 473.999 331.783 474.416 331.671 474.915C331.569 475.414 331.518 475.999 331.518 476.671V480H329.075V471.678H331.518V472.777C332.322 471.861 333.549 471.403 335.198 471.403Z" fill="#E00000"/>
<path d="M120.81 24.0761L133.252 42.4617L127.488 46.3625L119.417 34.4367L115.268 37.2446L113.015 33.9153C114.655 32.8056 115.744 31.7912 116.281 30.8722C116.835 29.942 117.057 29.1999 116.948 28.646C116.827 28.0754 116.616 27.5666 116.313 27.1194L120.81 24.0761ZM139.484 38.2445L134.763 41.4391L139.143 13.1183L143.864 9.92368L139.484 38.2445ZM134.007 28.3309C133.294 28.8129 132.514 29.0873 131.666 29.1542C130.807 29.2046 129.987 29.0466 129.208 28.6804C128.445 28.3029 127.823 27.7581 127.341 27.0458C126.859 26.3336 126.585 25.5533 126.518 24.7051C126.468 23.8456 126.631 23.0346 127.009 22.2721C127.375 21.4929 127.914 20.8623 128.626 20.3804C129.339 19.8984 130.124 19.6322 130.984 19.5818C131.832 19.5149 132.637 19.6702 133.4 20.0477C134.179 20.4139 134.81 20.9532 135.292 21.6654C135.774 22.3777 136.04 23.1635 136.09 24.023C136.157 24.8712 136.007 25.6849 135.641 26.464C135.264 27.2266 134.719 27.8489 134.007 28.3309ZM132.292 25.7967C132.689 25.5276 132.925 25.1627 133 24.7017C133.091 24.2296 133.002 23.7948 132.733 23.3972C132.464 22.9997 132.093 22.7554 131.621 22.6644C131.165 22.5622 130.739 22.6456 130.341 22.9146C129.944 23.1836 129.699 23.5542 129.608 24.0263C129.534 24.4873 129.631 24.9165 129.9 25.314C130.169 25.7115 130.532 25.9614 130.987 26.0637C131.459 26.1547 131.894 26.0657 132.292 25.7967ZM149.967 30.9327C149.255 31.4147 148.475 31.6892 147.626 31.7561C146.767 31.8064 145.948 31.6484 145.169 31.2822C144.406 30.9047 143.784 30.3599 143.302 29.6476C142.82 28.9354 142.545 28.1552 142.478 27.3069C142.428 26.4475 142.592 25.6364 142.969 24.8739C143.335 24.0947 143.875 23.4642 144.587 22.9822C145.299 22.5002 146.085 22.234 146.944 22.1837C147.793 22.1168 148.598 22.272 149.361 22.6495C150.14 23.0158 150.77 23.555 151.252 24.2672C151.734 24.9795 152 25.7653 152.051 26.6248C152.118 27.473 151.968 28.2867 151.602 29.0659C151.224 29.8284 150.679 30.4507 149.967 30.9327ZM148.235 28.3736C148.616 28.1158 148.852 27.7508 148.943 27.2787C149.034 26.8066 148.951 26.38 148.693 25.9991C148.424 25.6015 148.059 25.3655 147.598 25.2911C147.126 25.2 146.7 25.2834 146.319 25.5413C145.938 25.7991 145.702 26.164 145.611 26.6362C145.52 27.1083 145.603 27.5349 145.861 27.9158C146.119 28.2968 146.484 28.5328 146.956 28.6238C147.428 28.7148 147.854 28.6314 148.235 28.3736Z" fill="#FFB21C"/>
<path d="M195.649 50.842L198.471 49.441L200.846 54.2238L198.024 55.6248L199.519 58.6342L193.285 61.7296L191.791 58.7202L177.657 65.7382L175.282 60.9554L183.412 41.846L189.645 38.7506L195.649 50.842ZM186.08 47.2199L181.758 57.7399L189.416 53.9374L186.08 47.2199ZM208.682 54.0839L203.577 56.619L211.703 29.1377L216.808 26.6026L208.682 54.0839ZM204.579 43.5273C203.809 43.9098 202.999 44.0775 202.149 44.0304C201.291 43.9654 200.5 43.6994 199.777 43.2323C199.072 42.7563 198.528 42.1331 198.145 41.3629C197.763 40.5926 197.595 39.7827 197.642 38.9331C197.707 38.0746 197.978 37.2928 198.454 36.5875C198.921 35.8643 199.539 35.3114 200.31 34.929C201.08 34.5465 201.894 34.3877 202.753 34.4527C203.602 34.4998 204.38 34.7613 205.085 35.2373C205.808 35.7044 206.361 36.3231 206.744 37.0933C207.126 37.8636 207.285 38.678 207.22 39.5365C207.173 40.386 206.916 41.1724 206.449 41.8956C205.973 42.6009 205.349 43.1448 204.579 43.5273ZM203.218 40.7866C203.648 40.5731 203.931 40.2429 204.066 39.7961C204.22 39.3403 204.189 38.8975 203.976 38.4676C203.763 38.0377 203.428 37.7461 202.972 37.5928C202.534 37.4306 202.1 37.4562 201.671 37.6697C201.241 37.8831 200.949 38.2178 200.796 38.6735C200.66 39.1203 200.699 39.5587 200.913 39.9886C201.126 40.4185 201.452 40.7146 201.89 40.8768C202.346 41.0301 202.788 41 203.218 40.7866ZM220.049 48.2389C219.279 48.6214 218.469 48.7891 217.619 48.742C216.761 48.677 215.97 48.411 215.246 47.9439C214.541 47.4679 213.997 46.8448 213.615 46.0745C213.232 45.3042 213.065 44.4943 213.112 43.6447C213.177 42.7863 213.447 42.0044 213.923 41.2991C214.39 40.5759 215.009 40.0231 215.779 39.6406C216.55 39.2581 217.364 39.0994 218.222 39.1643C219.072 39.2114 219.849 39.4729 220.555 39.9489C221.278 40.416 221.831 41.0347 222.213 41.805C222.596 42.5752 222.754 43.3896 222.689 44.2481C222.642 45.0977 222.385 45.8841 221.918 46.6073C221.442 47.3125 220.819 47.8564 220.049 48.2389ZM218.675 45.4713C219.087 45.2667 219.369 44.9366 219.522 44.4808C219.676 44.0251 219.65 43.5912 219.446 43.1792C219.232 42.7493 218.902 42.4667 218.455 42.3313C217.999 42.1779 217.566 42.2036 217.154 42.4082C216.741 42.6127 216.459 42.9429 216.306 43.3986C216.152 43.8544 216.178 44.2883 216.382 44.7003C216.587 45.1123 216.917 45.3949 217.373 45.5482C217.829 45.7015 218.263 45.6759 218.675 45.4713Z" fill="#FFB21C"/>
<path d="M327.623 21.8672L325.728 43.9862L318.793 43.392L320.022 29.0446L315.031 28.6169L315.374 24.6116C317.347 24.7806 318.831 24.677 319.827 24.3006C320.842 23.9259 321.482 23.4889 321.746 22.9896C322.011 22.4704 322.167 21.9417 322.213 21.4037L327.623 21.8672ZM354.991 38.6948L347.352 37.8898L354.991 38.6948ZM354.988 38.7247C354.743 40.8917 353.809 42.5379 352.187 43.6636C350.566 44.7693 348.72 45.4643 346.648 45.7484C344.598 46.0144 342.597 46.0637 340.644 45.8964C338.85 45.7428 337.019 45.3349 335.148 44.6728C333.278 44.0108 331.707 43.023 330.434 41.7096C329.181 40.3979 328.638 38.7756 328.803 36.8426L335.738 37.4368C335.651 38.453 336.123 39.2663 337.155 39.8766C338.188 40.467 339.47 40.8578 340.999 41.049C342.666 41.2722 344.112 41.1451 345.337 40.668C346.562 40.1908 347.233 39.2747 347.349 37.9197C347.465 36.5647 347.075 35.4974 346.178 34.718C345.282 33.9387 343.777 33.4585 341.665 33.2775C340.071 33.1409 338.712 33.3055 337.588 33.7713C336.485 34.2188 335.892 34.9408 335.806 35.9371L335.801 35.9969L329.014 35.4455L330.158 22.0844L355.177 24.2279L354.792 28.7115L336.559 27.1493L336.221 31.0949C337.379 30.4714 338.737 30.0759 340.297 29.9085C341.877 29.7427 343.524 29.7333 345.238 29.8801C347.27 30.0543 349.046 30.5276 350.566 31.3001C352.087 32.0527 353.235 33.0644 354.01 34.3352C354.804 35.6076 355.131 37.0608 354.991 38.6948L354.988 38.7247ZM361.218 47.0268L355.539 46.5403L376.76 27.2815L382.44 27.7681L361.218 47.0268ZM363.197 35.8751C362.34 35.8017 361.561 35.5241 360.86 35.0425C360.16 34.5409 359.623 33.9027 359.247 33.1279C358.892 32.3547 358.751 31.5397 358.825 30.6828C358.898 29.826 359.176 29.0468 359.657 28.3454C360.159 27.6456 360.796 27.1181 361.569 26.7628C362.344 26.3876 363.16 26.2367 364.017 26.3101C364.874 26.3835 365.652 26.671 366.352 27.1726C367.053 27.6542 367.582 28.2816 367.937 29.0547C368.312 29.8296 368.463 30.6455 368.39 31.5023C368.316 32.3592 368.029 33.1375 367.527 33.8372C367.045 34.5387 366.417 35.077 365.642 35.4522C364.869 35.8075 364.054 35.9485 363.197 35.8751ZM363.459 32.8262C363.937 32.8672 364.35 32.732 364.698 32.4205C365.065 32.1108 365.27 31.7168 365.311 31.2386C365.352 30.7603 365.217 30.3373 364.908 29.9695C364.618 29.6034 364.234 29.3999 363.756 29.3589C363.277 29.318 362.854 29.4523 362.487 29.7621C362.139 30.0735 361.944 30.4684 361.903 30.9466C361.862 31.4249 361.987 31.847 362.277 32.2131C362.586 32.5809 362.98 32.7853 363.459 32.8262ZM373.967 47.9384C373.11 47.865 372.331 47.5875 371.629 47.1058C370.93 46.6043 370.392 45.9661 370.017 45.1912C369.662 44.4181 369.521 43.6031 369.594 42.7462C369.668 41.8893 369.945 41.1102 370.427 40.4087C370.928 39.709 371.566 39.1815 372.339 38.8262C373.114 38.451 373.929 38.3 374.786 38.3735C375.643 38.4469 376.422 38.7344 377.121 39.2359C377.823 39.7176 378.351 40.345 378.706 41.1181C379.082 41.893 379.233 42.7088 379.159 43.5657C379.086 44.4225 378.798 45.2008 378.297 45.9006C377.815 46.602 377.187 47.1404 376.412 47.5156C375.639 47.8709 374.824 48.0118 373.967 47.9384ZM374.231 44.8597C374.689 44.899 375.102 44.7637 375.47 44.454C375.838 44.1443 376.041 43.7602 376.08 43.3019C376.121 42.8237 375.986 42.4106 375.675 42.0628C375.365 41.695 374.981 41.4914 374.523 41.4522C374.064 41.4129 373.651 41.5481 373.283 41.8579C372.916 42.1676 372.712 42.5516 372.673 43.01C372.634 43.4683 372.769 43.8813 373.079 44.2491C373.388 44.6169 373.772 44.8204 374.231 44.8597Z" fill="#FFB21C"/>
<path d="M472.918 223.266C481.399 245.809 472.917 311.758 483.062 273.096C486.756 259.021 502.336 268.456 488.134 239.589C470.381 203.506 461.928 194.056 472.918 223.266Z" fill="#E00000"/>
<path d="M136.714 267.07C133.037 253.505 144.757 261.822 144.757 250.518C144.757 239.214 141.865 225.315 144.757 231.543C153.566 250.518 145.619 257.487 147.49 276.023C149.405 294.998 141.31 284.026 136.714 267.07Z" fill="#E00000"/>
<path d="M228.738 311.531C230.5 315.334 226.553 318.035 222.525 319.927C212.367 324.699 223.267 317.025 218.87 299.26C216.266 288.735 226.535 306.778 228.738 311.531Z" fill="#E00000"/>
<path d="M504.243 335.284C500.951 332.144 500.31 328.2 500.823 323.396C501.767 314.562 506.715 330.89 514.765 341.373C520.615 348.992 508.357 339.209 504.243 335.284Z" fill="#E00000"/>
<path d="M398.96 324.56C397.784 327.127 399.2 328.74 401.997 330.106C407.141 332.62 403.178 324.886 404.67 317.671C405.754 312.427 400.43 321.35 398.96 324.56Z" fill="#E00000"/>
<defs>
<linearGradient id="paint0_linear_14_149" x1="321" y1="272" x2="321" y2="543.5" gradientUnits="userSpaceOnUse">
<stop stop-color="#FFB21C"/>
<stop offset="1" stop-color="#FF7B1C"/>
</linearGradient>
</defs>
</svg>
