<svg width="109" height="80" viewBox="0 0 109 80" fill="none" xmlns="http://www.w3.org/2000/svg">
<path fill-rule="evenodd" clip-rule="evenodd" d="M97.4301 19.9066C97.4724 20.7709 97.4959 21.6446 97.4959 22.5183C97.4959 49.1888 75.1641 79.9459 34.3283 79.9459C21.7916 79.9459 10.1202 76.6015 0.296875 70.8757C2.03207 71.0636 3.80018 71.1575 5.5918 71.1575C15.9936 71.1575 25.5677 67.9306 33.1621 62.5194C23.4469 62.3597 15.2506 56.5211 12.4244 48.503C13.7787 48.7379 15.1706 48.8694 16.6002 48.8694C18.6222 48.8694 20.5831 48.6205 22.45 48.1601C12.2928 46.3048 4.64191 38.1458 4.64191 28.3709C4.64191 28.2864 4.64191 28.2018 4.64191 28.1173C7.63735 29.6298 11.056 30.5363 14.6957 30.6444C8.73772 27.0229 4.8206 20.8461 4.8206 13.8426C4.8206 10.1459 5.91627 6.67469 7.82545 3.69668C18.7727 15.9093 35.1324 23.9415 53.5847 24.7823C53.2038 23.3074 53.011 21.7667 53.011 20.1838C53.011 9.03737 62.9519 0 75.2111 0C81.597 0 87.3669 2.45193 91.4157 6.37407C96.4708 5.46751 101.225 3.78592 105.514 1.47491C103.858 6.18618 100.336 10.1412 95.7513 12.6401C100.242 12.1516 104.521 11.0665 108.5 9.46011C105.532 13.5091 101.77 17.0648 97.4301 19.9066Z" fill="#FFB21C"/>
</svg>
