<svg width="26" height="19" viewBox="0 0 26 19" fill="none" xmlns="http://www.w3.org/2000/svg">
<path fill-rule="evenodd" clip-rule="evenodd" d="M23.0409 4.73488C23.0509 4.94012 23.0565 5.1476 23.0565 5.35507C23.0565 11.6886 17.7592 18.9927 8.07256 18.9927C5.09875 18.9927 2.33019 18.1984 0 16.8387C0.411604 16.8833 0.831016 16.9056 1.256 16.9056C3.7234 16.9056 5.99447 16.1393 7.79593 14.8543C5.49139 14.8164 3.54715 13.4299 2.87676 11.5258C3.19802 11.5816 3.52819 11.6128 3.86729 11.6128C4.34694 11.6128 4.81208 11.5537 5.25492 11.4444C2.84553 11.0037 1.03068 9.0662 1.03068 6.74493C1.03068 6.72485 1.03068 6.70477 1.03068 6.6847C1.74123 7.04387 2.55217 7.25916 3.41553 7.28481C2.00225 6.42479 1.07307 4.95797 1.07307 3.29482C1.07307 2.41696 1.33297 1.59263 1.78585 0.885433C4.38263 3.78562 8.26331 5.69305 12.6404 5.89272C12.55 5.54247 12.5043 5.1766 12.5043 4.80069C12.5043 2.15371 14.8624 0.00756836 17.7703 0.00756836C19.2851 0.00756836 20.6538 0.589837 21.6142 1.52124C22.8133 1.30596 23.9411 0.906627 24.9584 0.357822C24.5657 1.47663 23.7302 2.41584 22.6427 3.00926C23.7079 2.89326 24.723 2.63559 25.6667 2.2541C24.9628 3.21562 24.0704 4.06002 23.0409 4.73488Z" fill="white"/>
</svg>
