<svg width="561" height="561" viewBox="0 0 561 561" fill="none" xmlns="http://www.w3.org/2000/svg">
<g clip-path="url(#clip0_201_25)">
<rect x="0.161133" y="0.0805664" width="560" height="560" rx="49.2887" fill="url(#paint0_radial_201_25)"/>
<path d="M183.771 560.754V571.599L393.146 571.829L390.379 548.987C396.374 550.986 411.408 554.709 423.583 553.601C438.802 552.217 461.631 530.066 470.393 506.993C477.403 488.534 475.466 461.153 473.621 449.77C473.621 448.616 474.728 447.555 479.155 452.539C484.689 458.769 493.682 472.844 493.682 470.536C493.682 468.229 489.762 458.307 486.765 452.539C484.367 447.924 477.003 438.156 473.621 433.849V419.082C473.621 417.775 475.189 416.636 481.461 422.543C487.733 428.45 497.295 442.233 501.292 448.386C501.292 448.386 499.309 435.787 495.066 428.773C490.823 421.759 479.002 408.93 473.621 403.392L502.906 428.773C502.906 428.773 478.464 398.547 473.621 388.163C468.779 377.78 468.548 360.475 464.628 350.092C460.708 339.709 456.788 308.79 450.332 298.407C445.167 290.101 405.29 271.565 385.998 263.335C384.153 258.182 379.679 245.799 376.543 237.493C372.623 227.11 386.459 226.648 392.223 214.188C397.988 201.729 386.92 181.885 383 174.502C379.08 167.118 390.379 142.199 389.456 137.353C388.719 133.477 378.542 131.739 373.546 131.354L364.092 117.51C366.09 113.587 367.597 101.866 357.635 86.3605C345.183 66.9787 303.677 54.5189 291.226 53.5959C278.774 52.673 264.477 53.5959 231.273 62.5947C198.068 71.5934 171.32 118.433 169.475 125.355C167.63 132.277 157.484 146.813 151.489 158.581C146.693 167.995 127.047 245.107 117.823 282.486C110.06 286.639 92.4583 297.946 84.1571 309.944C73.7806 324.942 77.2395 348.015 79.3148 401.085C81.39 454.154 126.816 555.678 138.115 560.754C147.154 564.815 172.319 562.446 183.771 560.754Z" fill="#001521"/>
<path d="M262.153 290.447C272.262 284.014 279.812 278.172 284.801 272.92C289.921 267.537 292.481 261.694 292.481 255.392C292.481 248.171 289.133 242.46 282.437 238.259C275.873 234.057 265.566 231.891 251.518 231.76L252.306 216.596C270.424 216.858 284.538 220.272 294.648 226.836C304.757 233.27 309.812 242.394 309.812 254.211C309.812 261.432 307.711 267.996 303.51 273.905C299.308 279.681 294.319 284.671 288.543 288.872C282.766 292.942 275.742 297.34 267.47 302.067L262.153 290.447ZM259.199 336.137C259.199 332.724 260.315 330.032 262.547 328.063C264.91 326.093 268.061 325.109 272 325.109C275.807 325.109 278.827 326.093 281.059 328.063C283.291 330.032 284.407 332.724 284.407 336.137C284.407 339.551 283.291 342.308 281.059 344.409C278.827 346.378 275.807 347.363 272 347.363C268.061 347.363 264.91 346.378 262.547 344.409C260.315 342.308 259.199 339.551 259.199 336.137Z" fill="#FDD506"/>
</g>
<defs>
<radialGradient id="paint0_radial_201_25" cx="0" cy="0" r="1" gradientUnits="userSpaceOnUse" gradientTransform="translate(280.161 280.081) rotate(90) scale(280)">
<stop stop-color="#098477"/>
<stop offset="1" stop-color="#00263D"/>
</radialGradient>
<clipPath id="clip0_201_25">
<rect x="0.161133" y="0.0805664" width="560" height="560" rx="49.2887" fill="white"/>
</clipPath>
</defs>
</svg>
