<svg width="561" height="561" viewBox="0 0 561 561" fill="none" xmlns="http://www.w3.org/2000/svg">
<g clip-path="url(#clip0_201_20)">
<rect x="0.919434" y="0.0805664" width="560" height="560" rx="49.1126" fill="url(#paint0_radial_201_20)"/>
<path d="M183.873 558.752V569.557L392.5 569.787L389.743 547.026C395.717 549.019 410.697 552.728 422.829 551.624C437.993 550.245 460.74 528.173 469.471 505.182C476.456 486.789 474.526 459.506 472.688 448.164C472.688 447.014 473.791 445.957 478.202 450.923C483.717 457.13 492.677 471.155 492.677 468.856C492.677 466.557 488.771 456.671 485.784 450.923C483.395 446.325 476.058 436.592 472.688 432.3V417.586C472.688 416.283 474.25 415.149 480.5 421.034C486.749 426.92 496.277 440.653 500.26 446.784C500.26 446.784 498.284 434.231 494.056 427.242C489.828 420.253 478.049 407.469 472.688 401.952L501.868 427.242C501.868 427.242 477.513 397.123 472.688 386.777C467.863 376.431 467.633 359.188 463.727 348.842C459.821 338.496 455.915 307.688 449.482 297.342C444.335 289.065 404.601 270.595 385.377 262.395C383.539 257.26 379.082 244.922 375.957 236.645C372.051 226.299 385.837 225.839 391.581 213.424C397.325 201.009 386.296 181.236 382.39 173.879C378.484 166.522 389.743 141.691 388.824 136.863C388.088 133.001 377.948 131.269 372.97 130.885L363.549 117.091C365.541 113.182 367.042 101.503 357.116 86.0525C344.709 66.7399 303.351 54.3246 290.944 53.405C278.536 52.4853 264.291 53.405 231.205 62.3716C198.119 71.3381 171.466 118.01 169.628 124.908C167.79 131.805 157.68 146.289 151.706 158.015C146.927 167.395 127.351 244.232 118.161 281.478C110.425 285.616 92.8864 296.882 84.6149 308.837C74.2755 323.781 77.7219 346.773 79.7898 399.652C81.8577 452.532 127.121 553.694 138.38 558.752C147.387 562.798 172.462 560.438 183.873 558.752Z" fill="#130027"/>
<path d="M261.975 289.028C272.049 282.618 279.571 276.796 284.542 271.563C289.644 266.199 292.195 260.378 292.195 254.098C292.195 246.903 288.859 241.212 282.187 237.026C275.646 232.839 265.377 230.681 251.379 230.55L252.163 215.44C270.217 215.702 284.281 219.103 294.354 225.644C304.427 232.055 309.464 241.147 309.464 252.921C309.464 260.116 307.371 266.657 303.185 272.544C298.998 278.301 294.027 283.272 288.271 287.458C282.514 291.514 275.515 295.896 267.274 300.606L261.975 289.028ZM259.032 334.555C259.032 331.153 260.144 328.471 262.368 326.509C264.723 324.547 267.862 323.565 271.787 323.565C275.581 323.565 278.59 324.547 280.814 326.509C283.038 328.471 284.15 331.153 284.15 334.555C284.15 337.956 283.038 340.703 280.814 342.796C278.59 344.759 275.581 345.74 271.787 345.74C267.862 345.74 264.723 344.759 262.368 342.796C260.144 340.703 259.032 337.956 259.032 334.555Z" fill="#FDD506"/>
</g>
<defs>
<radialGradient id="paint0_radial_201_20" cx="0" cy="0" r="1" gradientUnits="userSpaceOnUse" gradientTransform="translate(280.919 280.081) rotate(90) scale(280)">
<stop stop-color="#7324A2"/>
<stop offset="1" stop-color="#330567"/>
</radialGradient>
<clipPath id="clip0_201_20">
<rect x="0.919434" y="0.0805664" width="560" height="560" rx="49.1126" fill="white"/>
</clipPath>
</defs>
</svg>
